<?xml version="1.0" encoding="UTF-8"?>
<svg width="43px" height="32px" viewBox="0 0 43 32" version="1.1" xmlns="http://www.w3.org/2000/svg" xmlns:xlink="http://www.w3.org/1999/xlink">
    <title>90279543-4AA4-4DCF-AA01-BE6DB56DCE47</title>
    <g id="Dashboard-(Sherpan)" stroke="none" stroke-width="1" fill="none" fill-rule="evenodd">
        <g id="Dashboard-CO---Seleccionar-idioma" transform="translate(-1197.000000, -160.000000)" fill-rule="nonzero">
            <g id="User-Menu-Opened" transform="translate(1167.000000, 3.000000)">
                <g id="Options" transform="translate(31.000000, 105.000000)">
                    <g id="PT" transform="translate(0.000000, 52.000000)">
                        <g id="flag-usa" transform="translate(-1.000000, 0.000000)">
                            <rect id="Rectangle" fill="#FFFFFF" x="0" y="27.6162406" width="42.564812" height="2.0956391"></rect>
                            <rect id="Rectangle" fill="#FFFFFF" x="0" y="22.9678195" width="42.564812" height="2.55278195"></rect>
                            <rect id="Rectangle" fill="#FFFFFF" x="0" y="17.8646617" width="42.564812" height="2.55278195"></rect>
                            <rect id="Rectangle" fill="#FFFFFF" x="0" y="12.7615038" width="42.564812" height="2.55278195"></rect>
                            <rect id="Rectangle" fill="#FFFFFF" x="0" y="7.65593985" width="42.564812" height="2.55278195"></rect>
                            <rect id="Rectangle" fill="#FFFFFF" x="0" y="2.55278195" width="42.564812" height="2.55278195"></rect>
                            <rect id="Rectangle" fill="#ED1C24" x="-1.70957651e-14" y="29.9548872" width="42.564812" height="2.0956391"></rect>
                            <rect id="Rectangle" fill="#ED1C24" x="0" y="25.5206015" width="42.564812" height="2.0956391"></rect>
                            <rect id="Rectangle" fill="#ED1C24" x="0" y="20.4174436" width="42.564812" height="2.55278195"></rect>
                            <rect id="Rectangle" fill="#ED1C24" x="0" y="15.3118797" width="42.564812" height="2.55278195"></rect>
                            <rect id="Rectangle" fill="#ED1C24" x="0" y="10.2087218" width="42.564812" height="2.55278195"></rect>
                            <rect id="Rectangle" fill="#ED1C24" x="0" y="5.10315789" width="42.564812" height="2.55278195"></rect>
                            <rect id="Rectangle" fill="#ED1C24" x="0" y="0" width="42.564812" height="2.55278195"></rect>
                            <rect id="Rectangle" fill="#002E5F" x="0" y="0" width="21.283609" height="17.8646617"></rect>
                            <polygon id="Path" fill="#FFFFFF" points="1.93924812 0.199699248 2.12210526 0.760300752 2.71879699 0.760300752 2.23759398 1.10676692 2.42045113 1.66496241 1.93924812 1.32090226 1.4556391 1.66496241 1.64090226 1.10676692 1.15969925 0.760300752 1.75398496 0.760300752"></polygon>
                            <polygon id="Path" fill="#FFFFFF" points="5.2956391 0.199699248 5.48090226 0.760300752 6.07518797 0.760300752 5.59398496 1.10676692 5.77924812 1.66496241 5.2956391 1.32090226 4.81443609 1.66496241 4.99729323 1.10676692 4.51609023 0.760300752 5.11278195 0.760300752"></polygon>
                            <polygon id="Path" fill="#FFFFFF" points="8.65443609 0.199699248 8.83729323 0.760300752 9.43398496 0.760300752 8.95037594 1.10676692 9.1356391 1.66496241 8.65443609 1.32090226 8.17082707 1.66496241 8.35609023 1.10676692 7.8724812 0.760300752 8.46917293 0.760300752"></polygon>
                            <polygon id="Path" fill="#FFFFFF" points="12.0108271 0.199699248 12.1936842 0.760300752 12.7903759 0.760300752 12.3091729 1.10676692 12.4920301 1.66496241 12.0108271 1.32090226 11.527218 1.66496241 11.7124812 1.10676692 11.2312782 0.760300752 11.8255639 0.760300752"></polygon>
                            <polygon id="Path" fill="#FFFFFF" points="15.367218 0.199699248 15.5524812 0.760300752 16.1467669 0.760300752 15.6655639 1.10676692 15.8508271 1.66496241 15.367218 1.32090226 14.886015 1.66496241 15.0688722 1.10676692 14.5876692 0.760300752 15.1843609 0.760300752"></polygon>
                            <polygon id="Path" fill="#FFFFFF" points="18.726015 0.199699248 18.9088722 0.760300752 19.5055639 0.760300752 19.0219549 1.10676692 19.207218 1.66496241 18.726015 1.32090226 18.242406 1.66496241 18.4276692 1.10676692 17.9440602 0.760300752 18.5407519 0.760300752"></polygon>
                            <polygon id="Path" fill="#FFFFFF" points="1.91759398 4.11669173 2.10285714 4.67488722 2.69714286 4.67488722 2.21593985 5.02135338 2.39879699 5.58195489 1.91759398 5.23548872 1.43639098 5.58195489 1.61924812 5.02135338 1.13804511 4.67488722 1.73473684 4.67488722"></polygon>
                            <polygon id="Path" fill="#FFFFFF" points="5.27639098 4.11669173 5.45924812 4.67488722 6.05593985 4.67488722 5.57233083 5.02135338 5.75759398 5.58195489 5.27639098 5.23548872 4.79278195 5.58195489 4.97804511 5.02135338 4.49443609 4.67488722 5.09112782 4.67488722"></polygon>
                            <polygon id="Path" fill="#FFFFFF" points="8.63278195 4.11669173 8.8156391 4.67488722 9.41233083 4.67488722 8.93112782 5.02135338 9.11398496 5.58195489 8.63278195 5.23548872 8.15157895 5.58195489 8.33443609 5.02135338 7.85323308 4.67488722 8.4475188 4.67488722"></polygon>
                            <polygon id="Path" fill="#FFFFFF" points="11.9891729 4.11669173 12.1744361 4.67488722 12.7711278 4.67488722 12.2875188 5.02135338 12.472782 5.58195489 11.9891729 5.23548872 11.5079699 5.58195489 11.6908271 5.02135338 11.2096241 4.67488722 11.8063158 4.67488722"></polygon>
                            <polygon id="Path" fill="#FFFFFF" points="15.3479699 4.11669173 15.5308271 4.67488722 16.1275188 4.67488722 15.6463158 5.02135338 15.8291729 5.58195489 15.3479699 5.23548872 14.8643609 5.58195489 15.0496241 5.02135338 14.566015 4.67488722 15.1627068 4.67488722"></polygon>
                            <polygon id="Path" fill="#FFFFFF" points="18.7043609 4.11669173 18.887218 4.67488722 19.4839098 4.67488722 19.0027068 5.02135338 19.1855639 5.58195489 18.7043609 5.23548872 18.2231579 5.58195489 18.406015 5.02135338 17.924812 4.67488722 18.5190977 4.67488722"></polygon>
                            <polygon id="Path" fill="#FFFFFF" points="1.91759398 8.19969925 2.10285714 8.76030075 2.69714286 8.76030075 2.21593985 9.1043609 2.39879699 9.66496241 1.91759398 9.31849624 1.43639098 9.66496241 1.61924812 9.1043609 1.13804511 8.76030075 1.73473684 8.76030075"></polygon>
                            <polygon id="Path" fill="#FFFFFF" points="5.27639098 8.19969925 5.45924812 8.76030075 6.05593985 8.76030075 5.57233083 9.1043609 5.75759398 9.66496241 5.27639098 9.31849624 4.79278195 9.66496241 4.97804511 9.1043609 4.49443609 8.76030075 5.09112782 8.76030075"></polygon>
                            <polygon id="Path" fill="#FFFFFF" points="8.63278195 8.19969925 8.8156391 8.76030075 9.41233083 8.76030075 8.93112782 9.1043609 9.11398496 9.66496241 8.63278195 9.31849624 8.15157895 9.66496241 8.33443609 9.1043609 7.85323308 8.76030075 8.4475188 8.76030075"></polygon>
                            <polygon id="Path" fill="#FFFFFF" points="11.9891729 8.19969925 12.1744361 8.76030075 12.7711278 8.76030075 12.2875188 9.1043609 12.472782 9.66496241 11.9891729 9.31849624 11.5079699 9.66496241 11.6908271 9.1043609 11.2096241 8.76030075 11.8063158 8.76030075"></polygon>
                            <polygon id="Path" fill="#FFFFFF" points="15.3479699 8.19969925 15.5308271 8.76030075 16.1275188 8.76030075 15.6463158 9.1043609 15.8291729 9.66496241 15.3479699 9.31849624 14.8643609 9.66496241 15.0496241 9.1043609 14.566015 8.76030075 15.1627068 8.76030075"></polygon>
                            <polygon id="Path" fill="#FFFFFF" points="18.7043609 8.19969925 18.887218 8.76030075 19.4839098 8.76030075 19.0027068 9.1043609 19.1855639 9.66496241 18.7043609 9.31849624 18.2231579 9.66496241 18.406015 9.1043609 17.924812 8.76030075 18.5190977 8.76030075"></polygon>
                            <polygon id="Path" fill="#FFFFFF" points="1.91759398 12.3380451 2.10285714 12.8962406 2.69714286 12.8962406 2.21593985 13.2427068 2.39879699 13.8033083 1.91759398 13.4568421 1.43639098 13.8033083 1.61924812 13.2427068 1.13804511 12.8962406 1.73473684 12.8962406"></polygon>
                            <polygon id="Path" fill="#FFFFFF" points="5.27639098 12.3380451 5.45924812 12.8962406 6.05593985 12.8962406 5.57233083 13.2427068 5.75759398 13.8033083 5.27639098 13.4568421 4.79278195 13.8033083 4.97804511 13.2427068 4.49443609 12.8962406 5.09112782 12.8962406"></polygon>
                            <polygon id="Path" fill="#FFFFFF" points="8.63278195 12.3380451 8.8156391 12.8962406 9.41233083 12.8962406 8.93112782 13.2427068 9.11398496 13.8033083 8.63278195 13.4568421 8.15157895 13.8033083 8.33443609 13.2427068 7.85323308 12.8962406 8.4475188 12.8962406"></polygon>
                            <polygon id="Path" fill="#FFFFFF" points="11.9891729 12.3380451 12.1744361 12.8962406 12.7711278 12.8962406 12.2875188 13.2427068 12.472782 13.8033083 11.9891729 13.4568421 11.5079699 13.8033083 11.6908271 13.2427068 11.2096241 12.8962406 11.8063158 12.8962406"></polygon>
                            <polygon id="Path" fill="#FFFFFF" points="15.3479699 12.3380451 15.5308271 12.8962406 16.1275188 12.8962406 15.6463158 13.2427068 15.8291729 13.8033083 15.3479699 13.4568421 14.8643609 13.8033083 15.0496241 13.2427068 14.566015 12.8962406 15.1627068 12.8962406"></polygon>
                            <polygon id="Path" fill="#FFFFFF" points="18.7043609 12.3380451 18.887218 12.8962406 19.4839098 12.8962406 19.0027068 13.2427068 19.1855639 13.8033083 18.7043609 13.4568421 18.2231579 13.8033083 18.406015 13.2427068 17.924812 12.8962406 18.5190977 12.8962406"></polygon>
                            <polygon id="Path" fill="#FFFFFF" points="1.91759398 15.5043609 2.10285714 16.0625564 2.69714286 16.0625564 2.21593985 16.4090226 2.39879699 16.9696241 1.91759398 16.6231579 1.43639098 16.9696241 1.61924812 16.4090226 1.13804511 16.0625564 1.73473684 16.0625564"></polygon>
                            <polygon id="Path" fill="#FFFFFF" points="5.27639098 15.5043609 5.45924812 16.0625564 6.05593985 16.0625564 5.57233083 16.4090226 5.75759398 16.9696241 5.27639098 16.6231579 4.79278195 16.9696241 4.97804511 16.4090226 4.49443609 16.0625564 5.09112782 16.0625564"></polygon>
                            <polygon id="Path" fill="#FFFFFF" points="8.63278195 15.5043609 8.8156391 16.0625564 9.41233083 16.0625564 8.93112782 16.4090226 9.11398496 16.9696241 8.63278195 16.6231579 8.15157895 16.9696241 8.33443609 16.4090226 7.85323308 16.0625564 8.4475188 16.0625564"></polygon>
                            <polygon id="Path" fill="#FFFFFF" points="11.9891729 15.5043609 12.1744361 16.0625564 12.7711278 16.0625564 12.2875188 16.4090226 12.472782 16.9696241 11.9891729 16.6231579 11.5079699 16.9696241 11.6908271 16.4090226 11.2096241 16.0625564 11.8063158 16.0625564"></polygon>
                            <polygon id="Path" fill="#FFFFFF" points="15.3479699 15.5043609 15.5308271 16.0625564 16.1275188 16.0625564 15.6463158 16.4090226 15.8291729 16.9696241 15.3479699 16.6231579 14.8643609 16.9696241 15.0496241 16.4090226 14.566015 16.0625564 15.1627068 16.0625564"></polygon>
                            <polygon id="Path" fill="#FFFFFF" points="18.7043609 15.5043609 18.887218 16.0625564 19.4839098 16.0625564 19.0027068 16.4090226 19.1855639 16.9696241 18.7043609 16.6231579 18.2231579 16.9696241 18.406015 16.4090226 17.924812 16.0625564 18.5190977 16.0625564"></polygon>
                            <polygon id="Path" fill="#FFFFFF" points="3.61383459 2.17984962 3.79669173 2.74045113 4.39338346 2.74045113 3.91218045 3.08691729 4.09503759 3.64511278 3.61383459 3.29864662 3.13022556 3.64511278 3.31548872 3.08691729 2.83428571 2.74045113 3.42857143 2.74045113"></polygon>
                            <polygon id="Path" fill="#FFFFFF" points="6.96300752 2.17984962 7.14586466 2.74045113 7.74255639 2.74045113 7.26135338 3.08691729 7.44421053 3.64511278 6.96300752 3.29864662 6.4793985 3.64511278 6.66466165 3.08691729 6.18105263 2.74045113 6.77774436 2.74045113"></polygon>
                            <polygon id="Path" fill="#FFFFFF" points="10.3121805 2.17984962 10.4950376 2.74045113 11.0917293 2.74045113 10.6081203 3.08691729 10.7933835 3.64511278 10.3121805 3.29864662 9.82857143 3.64511278 10.0138346 3.08691729 9.53022556 2.74045113 10.1269173 2.74045113"></polygon>
                            <polygon id="Path" fill="#FFFFFF" points="13.6589474 2.17984962 13.8442105 2.74045113 14.4409023 2.74045113 13.9572932 3.08691729 14.1425564 3.64511278 13.6589474 3.29864662 13.1777444 3.64511278 13.3630075 3.08691729 12.8793985 2.74045113 13.4760902 2.74045113"></polygon>
                            <polygon id="Path" fill="#FFFFFF" points="17.0081203 2.17984962 17.1933835 2.74045113 17.7900752 2.74045113 17.3064662 3.08691729 17.4917293 3.64511278 17.0081203 3.29864662 16.5269173 3.64511278 16.7121805 3.08691729 16.2285714 2.74045113 16.8252632 2.74045113"></polygon>
                            <polygon id="Path" fill="#FFFFFF" points="3.61383459 6.19067669 3.79669173 6.7512782 4.39338346 6.7512782 3.91218045 7.09774436 4.09503759 7.65593985 3.61383459 7.30947368 3.13022556 7.65593985 3.31548872 7.09774436 2.83428571 6.7512782 3.42857143 6.7512782"></polygon>
                            <polygon id="Path" fill="#FFFFFF" points="6.96300752 6.19067669 7.14586466 6.7512782 7.74255639 6.7512782 7.26135338 7.09774436 7.44421053 7.65593985 6.96300752 7.30947368 6.4793985 7.65593985 6.66466165 7.09774436 6.18105263 6.7512782 6.77774436 6.7512782"></polygon>
                            <polygon id="Path" fill="#FFFFFF" points="10.3121805 6.19067669 10.4950376 6.7512782 11.0917293 6.7512782 10.6081203 7.09774436 10.7933835 7.65593985 10.3121805 7.30947368 9.82857143 7.65593985 10.0138346 7.09774436 9.53022556 6.7512782 10.1269173 6.7512782"></polygon>
                            <polygon id="Path" fill="#FFFFFF" points="13.6589474 6.19067669 13.8442105 6.7512782 14.4409023 6.7512782 13.9572932 7.09774436 14.1425564 7.65593985 13.6589474 7.30947368 13.1777444 7.65593985 13.3630075 7.09774436 12.8793985 6.7512782 13.4760902 6.7512782"></polygon>
                            <polygon id="Path" fill="#FFFFFF" points="17.0081203 6.19067669 17.1933835 6.7512782 17.7900752 6.7512782 17.3064662 7.09774436 17.4917293 7.65593985 17.0081203 7.30947368 16.5269173 7.65593985 16.7121805 7.09774436 16.2285714 6.7512782 16.8252632 6.7512782"></polygon>
                            <polygon id="Path" fill="#FFFFFF" points="3.61383459 10.1630075 3.79669173 10.723609 4.39338346 10.723609 3.91218045 11.0700752 4.09503759 11.6282707 3.61383459 11.2842105 3.13022556 11.6282707 3.31548872 11.0700752 2.83428571 10.723609 3.42857143 10.723609"></polygon>
                            <polygon id="Path" fill="#FFFFFF" points="6.96300752 10.1630075 7.14586466 10.723609 7.74255639 10.723609 7.26135338 11.0700752 7.44421053 11.6282707 6.96300752 11.2842105 6.4793985 11.6282707 6.66466165 11.0700752 6.18105263 10.723609 6.77774436 10.723609"></polygon>
                            <polygon id="Path" fill="#FFFFFF" points="10.3121805 10.1630075 10.4950376 10.723609 11.0917293 10.723609 10.6081203 11.0700752 10.7933835 11.6282707 10.3121805 11.2842105 9.82857143 11.6282707 10.0138346 11.0700752 9.53022556 10.723609 10.1269173 10.723609"></polygon>
                            <polygon id="Path" fill="#FFFFFF" points="13.6589474 10.1630075 13.8442105 10.723609 14.4409023 10.723609 13.9572932 11.0700752 14.1425564 11.6282707 13.6589474 11.2842105 13.1777444 11.6282707 13.3630075 11.0700752 12.8793985 10.723609 13.4760902 10.723609"></polygon>
                            <polygon id="Path" fill="#FFFFFF" points="17.0081203 10.1630075 17.1933835 10.723609 17.7900752 10.723609 17.3064662 11.0700752 17.4917293 11.6282707 17.0081203 11.2842105 16.5269173 11.6282707 16.7121805 11.0700752 16.2285714 10.723609 16.8252632 10.723609"></polygon>
                            <polygon id="Path" fill="#FFFFFF" points="3.71969925 14.0390977 3.90255639 14.5996992 4.49924812 14.5996992 4.0156391 14.9437594 4.20090226 15.5043609 3.71969925 15.1578947 3.23609023 15.5043609 3.42135338 14.9437594 2.93774436 14.5996992 3.53443609 14.5996992"></polygon>
                            <polygon id="Path" fill="#FFFFFF" points="7.06646617 14.0390977 7.25172932 14.5996992 7.84842105 14.5996992 7.36481203 14.9437594 7.55007519 15.5043609 7.06646617 15.1578947 6.58526316 15.5043609 6.77052632 14.9437594 6.28691729 14.5996992 6.88360902 14.5996992"></polygon>
                            <polygon id="Path" fill="#FFFFFF" points="10.4156391 14.0390977 10.6009023 14.5996992 11.195188 14.5996992 10.713985 14.9437594 10.8992481 15.5043609 10.4156391 15.1578947 9.93443609 15.5043609 10.1172932 14.9437594 9.63609023 14.5996992 10.232782 14.5996992"></polygon>
                            <polygon id="Path" fill="#FFFFFF" points="13.764812 14.0390977 13.9500752 14.5996992 14.5443609 14.5996992 14.0631579 14.9437594 14.2484211 15.5043609 13.764812 15.1578947 13.283609 15.5043609 13.4664662 14.9437594 12.9852632 14.5996992 13.5819549 14.5996992"></polygon>
                            <polygon id="Path" fill="#FFFFFF" points="17.113985 14.0390977 17.2992481 14.5996992 17.8935338 14.5996992 17.4123308 14.9437594 17.597594 15.5043609 17.113985 15.1578947 16.632782 15.5043609 16.8156391 14.9437594 16.3344361 14.5996992 16.9311278 14.5996992"></polygon>
                        </g>
                    </g>
                </g>
            </g>
        </g>
    </g>
</svg>