<?xml version="1.0" encoding="UTF-8"?>
<svg width="42px" height="32px" viewBox="0 0 42 32" version="1.1" xmlns="http://www.w3.org/2000/svg" xmlns:xlink="http://www.w3.org/1999/xlink">
    <title>B8ECD64F-12B0-4938-A036-322000B14483</title>
    <g id="Dashboard-(Sherpan)" stroke="none" stroke-width="1" fill="none" fill-rule="evenodd">
        <g id="Dashboard-CO---Seleccionar-idioma" transform="translate(-1294.000000, -22.000000)">
            <g id="User-Menu-Opened" transform="translate(1167.000000, 3.000000)">
                <g id="Selected-Language" transform="translate(30.000000, 13.000000)">
                    <g id="Icon" transform="translate(98.000000, 6.000000)">
                        <g id="Flag" transform="translate(-1.000000, -0.180451)">
                            <g id="flag-brasil" transform="translate(0.000000, -0.000000)">
                                <polygon id="Path" fill="#229E45" points="0 0.240601504 42 0.240601504 42 32.1804511 0 32.1804511"></polygon>
                                <polygon id="Path" fill="#F8E509" points="21.0922687 29.2483064 40.8770906 16.2281598 20.9725031 3.17274624 1.12284375 16.2593677 21.0922687 29.2482398"></polygon>
                                <path d="M29.7130969,16.210859 C29.7130969,20.8905793 25.9656469,24.684235 21.3429562,24.684235 C16.7202,24.684235 12.9728813,20.8905793 12.9728813,16.210859 C12.9728813,11.5311387 16.7203312,7.73748308 21.3429562,7.73748308 C25.9657125,7.73748308 29.7130969,11.5311387 29.7130969,16.210859 L29.7130969,16.210859 Z" id="Path" fill="#2B49A3"></path>
                                <path d="M18.5915625,21.2859015 L18.3328031,21.1345865 L18.0642,21.2693327 L18.1243781,20.9665695 L17.9168719,20.7448538 L18.2134969,20.7095868 L18.3528844,20.4380981 L18.4771781,20.7189026 L18.7698656,20.7728011 L18.55035,20.9810756 M24.2005312,22.726056 L23.9419687,22.574741 L23.6734312,22.7094872 L23.7335437,22.4067241 L23.5261687,22.1850083 L23.8227937,22.1497414 L23.96205,21.8782526 L24.0863437,22.1590571 L24.3790312,22.2129556 L24.1595156,22.4212301 M21.7829062,20.4254553 L21.5595187,20.294768 L21.3274687,20.4110823 L21.3794437,20.1495748 L21.2002875,19.9579357 L21.4564875,19.9275263 L21.5768437,19.6931011 L21.6842062,19.9356444 L21.9370594,19.9822233 L21.7474031,20.1622177 M27.4479187,19.5981466 L27.2286,19.4698549 L27.00075,19.5841729 L27.0517406,19.3274564 L26.8758656,19.139344 L27.1274062,19.1094004 L27.2455313,18.8791673 L27.3509906,19.1173853 L27.59925,19.1630327 L27.4130719,19.3398331 M21.6805312,17.8760564 L21.4219687,17.7248079 L21.1533656,17.8595541 L21.2134781,17.556791 L21.0059719,17.3350752 L21.3027281,17.2998083 L21.44205,17.0283195 L21.5663437,17.3091241 L21.8590312,17.3630226 L21.63945,17.571297 M14.7741563,15.2470075 L14.5155938,15.0956925 L14.246925,15.2304387 L14.3070375,14.9278086 L14.0996625,14.7060263 L14.3962875,14.6707594 L14.5355438,14.3992707 L14.6598375,14.6800752 L14.952525,14.7339737 L14.7330094,14.9422481 M15.6047063,18.7444211 L15.3461438,18.5930395 L15.077475,18.7277857 L15.1375875,18.4251556 L14.9302125,18.2033068 L15.2268375,18.1680398 L15.3661594,17.8965511 L15.4904531,18.1773556 L15.7831406,18.2312541 L15.563625,18.4396617 M24.2231063,13.9594323 L23.9947313,13.8258838 L23.7574313,13.9448598 L23.8105875,13.6775632 L23.6272313,13.4816654 L23.8893375,13.450391 L24.0123844,13.2106425 L24.122175,13.4587086 L24.3807375,13.5062857 L24.1868156,13.6903391 M23.749425,16.2348805 L23.5696125,16.129612 L23.3825813,16.2233023 L23.4245813,16.0127654 L23.2802063,15.8583895 L23.4865969,15.8339023 L23.583525,15.6450579 L23.6700187,15.8404233 L23.8736531,15.8778861 L23.7209437,16.0229462 M14.3891344,19.3780944 L14.2165406,19.2770846 L14.0371219,19.3670485 L14.0771531,19.1649624 L13.9386844,19.0169079 L14.1368719,18.9933523 L14.2297969,18.8121602 L14.3127469,18.9996737 L14.5081781,19.035606 L14.3616375,19.1746774 M27.495825,20.1837105 L27.355125,20.1081861 L27.2089781,20.1753929 L27.2417906,20.024344 L27.1289156,19.9134861 L27.2903531,19.8958526 L27.3660844,19.7602414 L27.4336781,19.9005105 L27.5928844,19.9273932 L27.4734469,20.0313974" id="Shape" fill="#FFFFEF"></path>
                                <polyline id="Path" fill="#FFFFEF" points="14.3891344 19.3780944 14.2165406 19.2770846 14.0371219 19.3670485 14.0771531 19.1649624 13.9386844 19.0169079 14.1368719 18.9933523 14.2297969 18.8121602 14.3127469 18.9996737 14.5081781 19.035606 14.3616375 19.1746774"></polyline>
                                <path d="M14.3891344,19.3780944 L14.2165406,19.2770846 L14.0371219,19.3670485 L14.0771531,19.1649624 L13.9386844,19.0169079 L14.1368719,18.9933523 L14.2297969,18.8121602 L14.3127469,18.9996737 L14.5081781,19.035606 L14.3616375,19.1746774 M17.1375094,19.3774955 L16.9649156,19.2763526 L16.7855625,19.3663831 L16.8255938,19.164297 L16.687125,19.0162425 L16.8853125,18.9926868 L16.9782375,18.8115613 L17.0612531,18.9990083 L17.2566844,19.0349406 L17.1101437,19.174012 M16.7960625,20.3044831 L16.6234688,20.2034733 L16.44405,20.2934372 L16.4842125,20.0912846 L16.3457437,19.9432301 L16.5437344,19.9196744 L16.636725,19.7384158 L16.7197406,19.9258628 L16.9151062,19.9617951 L16.7685656,20.1008665 M22.5029438,18.6169278 L22.33035,18.515785 L22.1509969,18.6058154 L22.1910281,18.4037959 L22.0525594,18.2557414 L22.2506156,18.2322523 L22.3436062,18.0509936 L22.4266219,18.2384406 L22.6219875,18.2743729 L22.4754469,18.4134444 M20.828325,18.6162624 L20.6557312,18.5152526 L20.4763125,18.6052165 L20.516475,18.4031305 L20.3780062,18.2550759 L20.5760625,18.2315868 L20.6690531,18.0503282 L20.7520031,18.2377752 L20.9475656,18.2737075 L20.8009594,18.4127789 M16.2859594,18.0243105 L16.1778094,17.9609632 L16.0653281,18.0173237 L16.0905281,17.890762 L16.0037062,17.7980034 L16.1277375,17.7832312 L16.1861437,17.6697117 L16.2381187,17.7871571 L16.3604437,17.8097812 L16.2685687,17.8969504 M27.2829375,20.9168632 L27.1103437,20.8158534 L26.9309906,20.9056842 L26.9711531,20.7037312 L26.8326844,20.5556102 L27.030675,20.5320545 L27.1236656,20.3507959 L27.2066156,20.5382429 L27.4020469,20.5741752 L27.2555062,20.7132466 M25.8884062,21.1021143 L25.745475,21.0182722 L25.5969,21.0929316 L25.6301719,20.9251143 L25.5154594,20.8021459 L25.6795219,20.7825827 L25.7565656,20.6320662 L25.8253406,20.7877729 L25.9871719,20.8177165 L25.8657656,20.9331658 M26.5463625,21.0860113 L26.4131437,21.0079583 L26.2748062,21.0774274 L26.3057812,20.9214545 L26.1988125,20.8071365 L26.3517187,20.7889041 L26.4234469,20.6489677 L26.4874969,20.7938282 L26.6381719,20.8215759 L26.5251,20.9290402 M28.4354437,19.4144925 L28.3071469,19.3393008 L28.1739281,19.4062414 L28.2037219,19.2560575 L28.1008875,19.1459316 L28.2480844,19.1284977 L28.3171875,18.993818 L28.378875,19.1330226 L28.5239062,19.1597722 L28.4151,19.2631109 M25.872,22.0455376 L25.7043938,21.9527124 L25.5303563,22.0352237 L25.5693375,21.8498395 L25.4348063,21.7138955 L25.6270875,21.6922695 L25.7173875,21.5259162 L25.7979094,21.6979921 L25.9875656,21.7309966 L25.8453563,21.858756 M25.8813844,22.8067707 L25.7284781,22.7139455 L25.5697969,22.7964568 L25.6053656,22.6110726 L25.4826469,22.475062 L25.6580625,22.4535026 L25.7404219,22.2871492 L25.8139219,22.4592252 L25.9868437,22.4922297 L25.8571031,22.619856 M24.6148875,21.0857451 L24.4865906,21.0105534 L24.3532406,21.077494 L24.3831,20.9273102 L24.2802,20.8173173 L24.4273313,20.7998169 L24.4965,20.6650707 L24.5581875,20.8043417 L24.7034156,20.8310914 L24.5944781,20.9344966 M23.4276,21.0857451 L23.2993688,21.0105534 L23.16615,21.077494 L23.1959438,20.9273102 L23.0929125,20.8173173 L23.240175,20.7998169 L23.3092781,20.6650707 L23.3709656,20.8043417 L23.5159969,20.8310914 L23.4071906,20.9344966 M21.4116656,19.2982447 L21.2833688,19.2231861 L21.15015,19.2899936 L21.1799438,19.1398098 L21.0770438,19.0297504 L21.2242406,19.0121835 L21.2933438,18.8775038 L21.3550313,19.0168414 L21.5001938,19.043591 L21.3912563,19.1469297 M21.6363,22.9413838 L21.527625,22.8777703 L21.41475,22.9343305 L21.4400813,22.8072365 L21.3528,22.7140786 L21.4774875,22.6992398 L21.5360906,22.5851214 L21.5882625,22.7030327 L21.7112438,22.7256568 L21.6189094,22.8132252 M18.5915625,17.0487477 L18.3328688,16.8974327 L18.0642656,17.0321789 L18.1244438,16.7295489 L17.9169375,16.5077 L18.2135625,16.4724331 L18.35295,16.2009444 L18.4772438,16.4817489 L18.7699313,16.5356474 L18.5504156,16.7440549" id="Shape" fill="#FFFFEF"></path>
                                <path d="M29.16165,19.259318 C29.289225,18.9210218 29.4536813,18.4108492 29.5411594,17.9426643 C25.0955906,13.9829214 20.1397219,11.9544083 13.8777844,12.3718222 C13.6532156,12.8082004 13.4735344,13.2650068 13.3219406,13.759409 C20.7417,13.041694 26.1802406,16.372488 29.1618469,19.259318 L29.16165,19.259318 Z" id="Path" fill="#FFFFFF"></path>
                                <path d="M27.6551625,16.6323985 C27.7083187,16.6428455 27.7643625,16.6683308 27.8225062,16.7084553 C27.9178594,16.7741316 27.9754125,16.844732 27.9951,16.9203229 C28.0151156,16.996047 28.0027781,17.0702406 27.9580219,17.1429038 L27.8002594,17.0441564 C27.8199469,16.9999064 27.8248687,16.9616451 27.8145656,16.9295056 C27.8049187,16.8972331 27.7784719,16.8662914 27.7351594,16.8365474 C27.6907969,16.8059383 27.6497156,16.7911662 27.6121781,16.7924305 C27.5894225,16.792345 27.5682145,16.8041019 27.5560031,16.8235718 C27.5437969,16.8420038 27.5410406,16.8628312 27.5474719,16.8863203 C27.5560031,16.9162639 27.5913094,16.9657041 27.6541125,17.0349737 C27.7166531,17.1041767 27.759375,17.1607368 27.7820812,17.2044545 C27.8053781,17.2481722 27.8159437,17.2936199 27.8137125,17.3408643 C27.8122031,17.3878425 27.795075,17.4358188 27.7626562,17.4845936 C27.7333888,17.5287284 27.6920649,17.5632527 27.6437437,17.5839398 C27.5938687,17.6058985 27.5407125,17.6113549 27.4838156,17.5999098 C27.4273781,17.588132 27.3660844,17.5595192 27.3001969,17.5140714 C27.2042531,17.4480624 27.1453219,17.3748004 27.1238625,17.294485 C27.1027312,17.2137703 27.1156594,17.1266011 27.1632375,17.0333102 L27.3219187,17.1210117 C27.2969812,17.1781041 27.2904187,17.2281432 27.301575,17.2707297 C27.3133875,17.3136489 27.3425906,17.3511117 27.3891844,17.3830515 C27.4384031,17.4173203 27.4826344,17.4322921 27.5214844,17.4282996 C27.5608594,17.4243071 27.5900625,17.407938 27.6090937,17.3794583 C27.6207003,17.3627559 27.6259458,17.3423553 27.6238594,17.3220331 C27.6220875,17.3020707 27.6112594,17.2781158 27.591375,17.2505011 C27.5775937,17.2318695 27.544125,17.1924105 27.4909687,17.1322571 C27.4227187,17.0550692 27.3820312,16.9899917 27.3689062,16.9368917 C27.3505312,16.8622323 27.3616875,16.7944932 27.402375,16.7332752 C27.428625,16.6940158 27.4638,16.6647376 27.5081625,16.6455737 C27.5531812,16.6262767 27.6022031,16.6219515 27.6551625,16.6323985 Z M26.8857094,16.1109805 C26.9393906,16.1194312 26.9962875,16.1424545 27.0560062,16.1801835 C27.1539187,16.2418008 27.2140312,16.3100722 27.2366719,16.3847316 C27.2596406,16.4596571 27.2504531,16.53425 27.20865,16.6086432 L27.04695,16.5164835 C27.0649969,16.4715015 27.0684094,16.4331737 27.0567937,16.4015 C27.0457687,16.3694271 27.018075,16.3396165 26.9738437,16.3116692 C26.9281031,16.2828568 26.8865625,16.2698812 26.8491562,16.2726759 C26.824875,16.2743395 26.8066969,16.2856515 26.7941625,16.3062128 C26.782875,16.3249774 26.780775,16.3457383 26.7882562,16.3690278 C26.7977719,16.3985056 26.8351125,16.4465485 26.900475,16.5132895 C26.9657062,16.5798308 27.010725,16.6345278 27.0351375,16.6773139 C27.060075,16.7199004 27.0724125,16.7650154 27.0720844,16.8121932 C27.0725437,16.8593045 27.0571875,16.9078132 27.0268031,16.9581184 C26.9991821,17.0032958 26.9593113,17.0394496 26.9119594,17.0622556 C26.8630031,17.0862105 26.8098469,17.0937962 26.7526875,17.0846135 C26.6959219,17.0752977 26.6335781,17.0489474 26.5657875,17.0064274 C26.4674812,16.9443444 26.4057937,16.8736109 26.3810531,16.7941605 C26.3565094,16.7143109 26.3659594,16.6268756 26.4097969,16.531788 L26.5720875,16.6129019 C26.5494469,16.6709259 26.5447219,16.7212312 26.55765,16.7632853 C26.5713,16.8056722 26.60175,16.8420038 26.649525,16.8720805 C26.7003844,16.9041534 26.7450094,16.9173286 26.7835969,16.9117391 C26.8229719,16.9060165 26.85165,16.8887158 26.8693031,16.8594376 C26.8803273,16.842347 26.8847654,16.8217413 26.8817719,16.8015466 C26.8792781,16.7814511 26.8674656,16.757962 26.8463344,16.7311459 C26.8318969,16.7130466 26.7971156,16.6752511 26.7415312,16.6171605 C26.6701969,16.5428338 26.62695,16.4794199 26.611725,16.4268523 C26.5905281,16.3529914 26.5989937,16.2849195 26.6369906,16.2221045 C26.661504,16.1819849 26.6971036,16.1500532 26.7393656,16.1302774 C26.7835969,16.1092504 26.8325531,16.1027959 26.8857094,16.1109805 Z M25.9550812,15.4821647 L26.5350094,15.8425526 L26.4542906,15.9773654 L26.0323219,15.7150594 L25.9263375,15.8915271 L26.3189719,16.1356008 L26.2385812,16.2696816 L25.8458812,16.0256744 L25.7161406,16.2423331 L26.1530062,16.5138218 L26.0724187,16.6480357 L25.4776594,16.2782654 L25.9550812,15.4821647 Z M24.1196812,15.1476613 L24.1905562,15.0079244 L24.5449312,15.1939741 L24.37785,15.5241523 C24.3260062,15.5399891 24.2610375,15.5438485 24.1821562,15.5354643 C24.1062043,15.5275104 24.0323823,15.5052599 23.9644781,15.4698545 C23.8791656,15.4250722 23.8141969,15.3681793 23.7691781,15.2987102 C23.724686,15.2303674 23.7023408,15.149648 23.7052594,15.0678117 C23.7081167,14.9818384 23.7300306,14.8976211 23.769375,14.821409 C23.81295,14.7350383 23.8697812,14.6676985 23.9393437,14.6191233 C24.0087094,14.5707477 24.087,14.5465926 24.173625,14.5465926 C24.239775,14.5464602 24.3117,14.5669549 24.3895312,14.6075451 C24.490725,14.6607782 24.5586469,14.7237929 24.5932312,14.7969218 C24.6286687,14.8698511 24.6351,14.9486361 24.6127875,15.0334763 L24.4337625,14.9789124 C24.44295,14.9322004 24.4375031,14.8886823 24.4173562,14.848691 C24.3979312,14.8083669 24.3644625,14.7758282 24.3171469,14.7508752 C24.2451562,14.7131462 24.1763156,14.7062925 24.1101,14.7305801 C24.044475,14.7547346 23.9886937,14.8124259 23.9424937,14.9035876 C23.8926187,15.0020688 23.8765406,15.0872417 23.8945875,15.1592395 C23.9127656,15.2306383 23.9565375,15.2847365 24.0263625,15.3214008 C24.06075,15.3393669 24.09855,15.3506789 24.1398937,15.3551372 C24.1818937,15.3595289 24.2199562,15.3584643 24.2549344,15.3518102 L24.3080906,15.2465417 L24.1196156,15.1477278 L24.1196812,15.1476613 Z M18.19755,13.6585323 L18.3310312,12.7358034 L18.6048187,12.777059 L18.6785156,13.4308944 L18.9318281,12.8258338 L19.2066656,12.8669564 L19.07325,13.789885 L18.9032812,13.7644662 L19.0082812,13.0379677 L18.7232719,13.7374504 L18.5470687,13.7109669 L18.47265,12.9577188 L18.36765,13.6840177 L18.19755,13.6585989 L18.19755,13.6585323 Z M17.2717125,13.5495376 L17.3573531,12.6206203 L18.03375,12.6854316 L18.0195094,12.8424692 L17.527125,12.795491 L17.5080937,13.0014365 L17.966025,13.0451541 L17.9515875,13.2016594 L17.493525,13.1578752 L17.4703594,13.4107323 L17.9798719,13.4593075 L17.9654344,13.6159459 L17.2716469,13.5495376 L17.2717125,13.5495376 Z M19.8072,13.8498387 L19.954725,13.1950718 L20.4316875,13.3065286 L20.4068812,13.4171203 L20.0599219,13.3361395 L20.0268469,13.4811996 L20.3501156,13.5567906 L20.3250469,13.6669165 L20.0023031,13.5915917 L19.9620094,13.7697229 L20.3213062,13.853565 L20.2965,13.9640237 L19.8072,13.8497722 L19.8072,13.8498387 Z" id="Shape" fill="#309E3A" fill-rule="nonzero"></path>
                                <path d="M14.2078125,12.9686316 C14.2104375,12.8734774 14.22645,12.7942932 14.2561125,12.7304135 C14.2780986,12.6837089 14.3079955,12.6412777 14.3444437,12.6050496 C14.3815875,12.5683188 14.4218812,12.5414361 14.4654562,12.5245346 C14.5232062,12.5014447 14.5893562,12.4909312 14.6638406,12.4929274 C14.7987656,12.4969199 14.9054719,12.5424342 14.9838937,12.629803 C15.0629719,12.7173049 15.1003781,12.8370128 15.096375,12.9887936 C15.0924375,13.1391771 15.049125,13.2560902 14.9663062,13.3390673 C14.8836187,13.4215786 14.775075,13.4611041 14.6406094,13.4573113 C14.5043062,13.453585 14.3972719,13.4083368 14.3190469,13.3217665 C14.2409531,13.2347305 14.203875,13.1169523 14.2078781,12.9686316 L14.2078125,12.9686316 Z" id="Path" fill="#309E3A" fill-rule="nonzero"></path>
                                <path d="M14.3990437,12.9667684 C14.3962219,13.072303 14.418075,13.1530842 14.4644719,13.2091786 C14.5109344,13.2648737 14.5711125,13.2936861 14.6448094,13.2956823 C14.7184406,13.2976786 14.7796687,13.2723929 14.8281656,13.2199583 C14.8770562,13.1669248 14.9029781,13.0864098 14.9058656,12.9782135 C14.9086875,12.8714147 14.8876875,12.7910327 14.8428656,12.7372008 C14.7985031,12.6833023 14.7381937,12.6553549 14.6619375,12.6532256 C14.5856812,12.6512293 14.5234687,12.6761823 14.4753656,12.7282842 C14.4272625,12.7799868 14.4018656,12.8595038 14.3990437,12.9667684 Z" id="Path" fill="#F7FFFF" fill-rule="nonzero"></path>
                                <path d="M15.2940375,13.4497256 L15.3047344,12.5170154 L15.6940875,12.5216733 C15.7921313,12.5228711 15.8630063,12.5321203 15.906975,12.5496207 C15.9514031,12.5667218 15.9866438,12.596865 16.0128281,12.6401169 C16.0390125,12.6833688 16.0517438,12.7322767 16.0511531,12.787506 C16.0503,12.8575075 16.0293656,12.9151323 15.9884156,12.9603805 C15.9475313,13.0052959 15.8866969,13.0332432 15.806175,13.0442226 C15.8458781,13.0683771 15.878625,13.094794 15.9039563,13.1236064 C15.9300094,13.1522192 15.9645281,13.2031233 16.0079719,13.2761857 L16.1177625,13.4594406 L15.896475,13.4567789 L15.7650938,13.2522308 C15.7185,13.1791684 15.686475,13.1332549 15.6692813,13.1143571 C15.6518906,13.0950602 15.6335156,13.0819515 15.614025,13.0748981 C15.5945344,13.0675786 15.5634938,13.0635861 15.5209688,13.0631203 L15.4835625,13.062588 L15.4791,13.451988 L15.2940375,13.4497921 L15.2940375,13.4497256 Z" id="Path" fill="#309E3A" fill-rule="nonzero"></path>
                                <path d="M15.485925,12.913735 L15.6228188,12.915332 C15.7116094,12.9163966 15.7670625,12.9133357 15.7892438,12.9058831 C15.8113594,12.8984305 15.8288156,12.885588 15.8414813,12.8670229 C15.8541469,12.8484579 15.8607094,12.8253015 15.8611688,12.7972876 C15.8614313,12.7658801 15.853425,12.7405278 15.8368875,12.7212974 C15.8209406,12.7016011 15.7979063,12.6889583 15.7679813,12.6835684 C15.7528875,12.681306 15.7079344,12.6795759 15.6329906,12.6787774 L15.4886156,12.6770474 L15.4859906,12.9136019 L15.485925,12.913735 Z" id="Path" fill="#FFFFFF" fill-rule="nonzero"></path>
                                <path d="M16.3408219,12.5632617 L16.6785938,12.5805624 C16.7547188,12.5845549 16.8124688,12.593538 16.8518438,12.6075117 C16.9037778,12.6257924 16.9499206,12.6578724 16.9854563,12.7004034 C17.0217469,12.7433891 17.048325,12.7952914 17.0653875,12.8561102 C17.08245,12.9164632 17.08875,12.990191 17.0844188,13.0774267 C17.0806125,13.1541489 17.0678813,13.2196921 17.0463563,13.2743891 C17.0201063,13.3409305 16.9848,13.3939639 16.940175,13.4338222 C16.9067063,13.4639654 16.8620813,13.4863898 16.8066938,13.5014282 C16.7652188,13.5124741 16.7103563,13.5162004 16.641975,13.5127402 L16.2944906,13.4947741 L16.3408219,12.5631951 L16.3408219,12.5632617 Z" id="Path" fill="#309E3A" fill-rule="nonzero"></path>
                                <path d="M16.5182063,12.7294154 L16.4874938,13.3465199 L16.6255031,13.3535068 C16.6770844,13.3563015 16.7145563,13.3551703 16.7377219,13.3504459 C16.7679094,13.3442575 16.7935031,13.3326128 16.8138469,13.3154451 C16.8348469,13.2981444 16.8525656,13.2691989 16.8670031,13.2282759 C16.8816375,13.1870203 16.8906281,13.1304602 16.8943031,13.0583959 C16.8979781,12.9863316 16.8943031,12.9307695 16.8838031,12.8915767 C16.8733031,12.8523173 16.8572906,12.8215086 16.8358969,12.7986184 C16.8144375,12.7758613 16.7866781,12.7598248 16.7525531,12.7504425 C16.7269594,12.7431229 16.676625,12.7376 16.6012219,12.7338071 L16.5182719,12.7293489 L16.5182063,12.7294154 Z" id="Path" fill="#FFFFFF" fill-rule="nonzero"></path>
                                <path d="M20.8444687,14.2289248 L21.0584062,13.3219662 L21.3471562,13.3925 C21.4564875,13.4192496 21.5267719,13.4412083 21.5578125,13.4583759 C21.6057187,13.4844602 21.6414187,13.5246511 21.6650437,13.5788158 C21.6886687,13.6327143 21.69195,13.6955959 21.6750187,13.7677932 C21.6618937,13.8234218 21.641025,13.8678714 21.61215,13.9008759 C21.5834062,13.9341466 21.5509875,13.9577023 21.515025,13.9720752 C21.4795875,13.986182 21.4452,13.992703 21.4119937,13.9920376 C21.3670406,13.9901744 21.3037125,13.9793947 21.2223375,13.9594323 L21.1051312,13.9306865 L21.0244125,14.2728421 L20.8444031,14.2289248 L20.8444687,14.2289248 Z" id="Path" fill="#309E3A" fill-rule="nonzero"></path>
                                <path d="M21.2025187,13.5190617 L21.14175,13.7764436 L21.2401875,13.8005316 C21.3111937,13.8178323 21.359625,13.8247526 21.3857437,13.8210263 C21.4370274,13.8145721 21.4786611,13.7759083 21.4894969,13.7246744 C21.4973719,13.6916699 21.4942875,13.6621256 21.4803094,13.6361744 C21.4665218,13.6101616 21.4443549,13.5897285 21.4175062,13.5782835 C21.3970312,13.568768 21.3545062,13.5561917 21.2895375,13.5403549 L21.20265,13.5190617 L21.2025187,13.5190617 Z" id="Path" fill="#FFFFFF" fill-rule="nonzero"></path>
                                <path d="M21.6960188,14.4875045 L22.0005188,13.6078278 L22.3678875,13.7395797 C22.4602875,13.7727173 22.5245344,13.8047902 22.5606281,13.835732 C22.5973781,13.8665406 22.6212,13.906532 22.6323563,13.9559722 C22.6435125,14.0054124 22.6402313,14.0561169 22.6221188,14.1080857 C22.5992813,14.1740947 22.5612188,14.2218714 22.5081938,14.2513492 C22.4553,14.2804944 22.3889531,14.287082 22.3092188,14.2711786 C22.3392094,14.3071109 22.36185,14.3427771 22.3768125,14.3783102 C22.3924313,14.4139763 22.4089688,14.4734643 22.4270156,14.5568406 L22.4732156,14.7664459 L22.2645281,14.6915203 L22.2046125,14.4548992 C22.1834813,14.3703917 22.1677313,14.3164932 22.1573625,14.2928711 C22.1469938,14.2689162 22.1337375,14.2504177 22.1175281,14.2373756 C22.1013844,14.2239342 22.0733625,14.2100936 22.0331344,14.1956541 L21.9979594,14.1828782 L21.8707781,14.5501865 L21.6962156,14.4875045 L21.6960188,14.4875045 Z" id="Path" fill="#309E3A" fill-rule="nonzero"></path>
                                <path d="M22.0459313,14.0430083 L22.1750156,14.0892545 C22.2587531,14.1193312 22.3121719,14.1345026 22.3354688,14.1347023 C22.3587656,14.135035 22.3794375,14.1285139 22.3973531,14.1150726 C22.4152031,14.1017643 22.4287219,14.0818019 22.4377781,14.0554515 C22.44795,14.0258406 22.4484094,13.9992241 22.4388938,13.9756019 C22.4300344,13.951647 22.4121188,13.93235 22.3855406,13.9173117 C22.3720219,13.9102583 22.3299563,13.8940222 22.2592781,13.8687365 L22.1231063,13.819762 L22.0458656,14.0430748 L22.0459313,14.0430083 Z" id="Path" fill="#FFFFFF" fill-rule="nonzero"></path>
                                <path d="M22.7725313,14.4538346 C22.8003563,14.3631387 22.836975,14.2912075 22.8823219,14.2382406 C22.9159303,14.1992142 22.9561034,14.1665459 23.0009719,14.1417556 C23.0466469,14.1166695 23.09265,14.1019639 23.1389156,14.0975056 C23.2006031,14.0913173 23.2670813,14.0995019 23.3382844,14.1221259 C23.4672375,14.1629823 23.5577344,14.2363774 23.6099719,14.3422447 C23.6626688,14.4482451 23.6668688,14.5738086 23.6224406,14.7187357 C23.5784719,14.8625981 23.5056281,14.9629425 23.4039094,15.020035 C23.3023219,15.0767282 23.1872156,15.0845801 23.0587219,15.0437902 C22.9286531,15.0025346 22.8375656,14.9294722 22.7854594,14.824603 C22.7334188,14.719268 22.7291531,14.5957008 22.7725969,14.4539677 L22.7725313,14.4538346 Z" id="Path" fill="#309E3A" fill-rule="nonzero"></path>
                                <path d="M22.9573313,14.5060695 C22.9264875,14.6068132 22.9258313,14.6905887 22.955625,14.7574628 C22.9854844,14.823738 23.0356875,14.8681211 23.1061031,14.8905455 C23.1765188,14.9127703 23.2419469,14.9053842 23.3027156,14.8681876 C23.3638781,14.8307914 23.4103406,14.7603906 23.4419719,14.6571184 C23.4732094,14.5549774 23.4744563,14.4719338 23.4456469,14.4075883 C23.4172969,14.3435756 23.3666344,14.2999244 23.2938563,14.2769011 C23.2210125,14.2538113 23.1545344,14.2607316 23.0943563,14.297662 C23.0343094,14.3341267 22.9887,14.4035959 22.9572,14.5061361 L22.9573313,14.5060695 Z" id="Path" fill="#FFFFFF" fill-rule="nonzero"></path>
                                <path d="M24.5637656,15.7527218 L24.98475,14.924282 L25.3305937,15.1063391 C25.4176125,15.1522526 25.4769375,15.1928429 25.5084375,15.2287752 C25.5405937,15.2641752 25.5588375,15.307294 25.5632344,15.3578654 C25.5676312,15.4084368 25.5571969,15.4580102 25.5323906,15.5070511 C25.5008906,15.5692008 25.456725,15.6111218 25.400025,15.6329474 C25.3435875,15.6543737 25.277175,15.6515789 25.2003281,15.6244301 C25.2251344,15.6642218 25.2426562,15.7029489 25.2528281,15.740212 C25.2631969,15.7777414 25.2717281,15.8389594 25.278225,15.9240658 L25.2954187,16.1379962 L25.0990031,16.0345244 L25.0717687,15.7917816 C25.0622531,15.7050117 25.05405,15.6493831 25.0469625,15.6246297 C25.0400719,15.5995436 25.0292437,15.5792485 25.0150031,15.5640771 C25.0009594,15.5485729 24.9749719,15.5308064 24.9371719,15.5109771 L24.9039,15.4934102 L24.7282219,15.8392256 L24.5638312,15.7527218 L24.5637656,15.7527218 Z" id="Path" fill="#309E3A" fill-rule="nonzero"></path>
                                <path d="M24.9705094,15.3605271 L25.0921125,15.4245398 C25.1708625,15.4661282 25.2218531,15.4885526 25.2450187,15.4921459 C25.2679875,15.4957391 25.2893156,15.4921459 25.3088719,15.4813662 C25.3282969,15.4707195 25.3443094,15.4528865 25.356975,15.4279335 C25.37115,15.3999861 25.3750875,15.3737688 25.36905,15.3490154 C25.3633406,15.3241289 25.3483781,15.3023034 25.3240969,15.2838049 C25.3116281,15.2748883 25.2722531,15.2528632 25.2054469,15.2177293 L25.0773469,15.1503229 L24.9703781,15.3605936 L24.9705094,15.3605271 Z" id="Path" fill="#FFFFFF" fill-rule="nonzero"></path>
                                <path d="M27.9632719,17.4551158 C28.015575,17.3763974 28.0710281,17.3183068 28.1296969,17.2807774 C28.172951,17.2534137 28.2206245,17.2339969 28.2705281,17.2234188 C28.3180278,17.212852 28.3671537,17.2122181 28.4149031,17.2215556 C28.4759344,17.2337992 28.5372281,17.2612143 28.5989812,17.3037342 C28.7108062,17.380656 28.7766937,17.4775402 28.796775,17.5942538 C28.8171187,17.7112335 28.7854219,17.8324718 28.70175,17.958368 C28.6188656,18.083 28.5207562,18.157859 28.407225,18.1826124 C28.293825,18.2069 28.181475,18.1807492 28.0699125,18.1039605 C27.9571687,18.0262402 27.890625,17.9294891 27.8704125,17.8137071 C27.8505281,17.6975259 27.8814375,17.5779511 27.9631406,17.4550492 L27.9632719,17.4551158 Z" id="Path" fill="#309E3A" fill-rule="nonzero"></path>
                                <path d="M28.1254313,17.5582549 C28.0672875,17.6458233 28.0430063,17.725806 28.0524563,17.7984692 C28.0623,17.8707996 28.0977375,17.9278921 28.1587688,17.9700128 C28.2199313,18.0120669 28.2847688,18.024244 28.3534781,18.0066105 C28.4227125,17.9886444 28.4871562,17.9349455 28.5466781,17.8452477 C28.6054781,17.7567477 28.6302188,17.6775635 28.6208344,17.607562 C28.6117781,17.5378932 28.5756844,17.4812665 28.5125531,17.4377485 C28.4494219,17.3942305 28.3837969,17.3811883 28.3156781,17.3989549 C28.2478875,17.4162556 28.1845594,17.4694887 28.1253656,17.5582549 L28.1254313,17.5582549 Z" id="Path" fill="#FFFFFF" fill-rule="nonzero"></path>
                            </g>
                        </g>
                    </g>
                </g>
            </g>
        </g>
    </g>
</svg>