<?xml version="1.0" encoding="utf-8"?>
<!-- Generator: Adobe Illustrator 27.5.0, SVG Export Plug-In . SVG Version: 6.00 Build 0)  -->
<svg version="1.1" xmlns="http://www.w3.org/2000/svg" xmlns:xlink="http://www.w3.org/1999/xlink" x="0px" y="0px"
	 viewBox="0 0 750 500" style="enable-background:new 0 0 750 500;" xml:space="preserve">
<g id="BACKGROUND2">
	<g>
		<g>
			<g id="XMLID_65_">
				<rect x="0.167" y="0" style="fill:#58E9E6;" width="749.666" height="500"/>
				<g id="XMLID_160_">
					<g>
						<path style="fill:#76EEEB;" d="M29.807,488.296c-2.422-12.878-15.678-21.083-28.528-22.909
							c-0.361-0.051-0.732-0.099-1.112-0.144v26.977c1.845,2.316,3.289,5.152,4.918,7.78h23.327
							C30.119,496.44,30.545,492.217,29.807,488.296z"/>
						<path style="fill:#76EEEB;" d="M56.288,415.236c-6.756-9.146-17.419-14.501-28.141-18.092
							c-9.068-3.037-18.472-5.039-27.979-5.984v65.238c6.667-0.586,13.326-1.326,19.939-0.437c9.529,1.283,19.308,5.882,28.336,2.54
							c8.242-3.04,12.402-11.215,13.315-20.061C62.626,430.034,60.563,421.023,56.288,415.236z"/>
						<path style="fill:#76EEEB;" d="M106.353,500c4.556-4.765,6.537-12.392,4.559-18.888c-2.861-9.396-12.123-15.804-21.733-17.353
							c-17.706-2.856-37.584,5.547-43.061,23.838c-1.197,3.998-1.028,8.598,0.548,12.404H106.353z"/>
						<path id="XMLID_25_" style="fill:#76EEEB;" d="M156.454,443.671c-0.36,9.401-5.079,18.514-14.295,21.602
							c-10.151,3.404-20.932-1.981-30.298-7.2c-11.414-6.369-36.441-13.561-38.202-29.582c-0.895-8.141,4.124-16.205,11.132-20.326
							c7.008-4.121,15.611-4.745,23.6-3.343c7.989,1.402,15.521,4.677,22.939,7.986c6.828,3.046,13.841,6.292,18.85,11.883
							C154.61,429.634,156.72,436.731,156.454,443.671z"/>
						<path style="fill:#76EEEB;" d="M246.795,493.626c-1.602,2.663-3.972,4.616-6.549,6.374h43.782
							c12.261-22.915,13.387-58.527-5.518-77.276c-9.372-9.294-23.072-13.93-36.095-12.215
							c-19.866,2.617-29.875,21.679-20.072,39.594C229.401,463.002,258.305,474.496,246.795,493.626z"/>
						<path style="fill:#76EEEB;" d="M322.336,500h60.572c-2.782-3.869-6.201-7.312-10.006-10.097
							c-10.6-7.759-23.722-11.173-36.693-12.954c-6.96-0.955-15.604-0.667-18.974,5.558c-2.766,5.11-0.213,11.617,3.638,15.952
							C321.344,498.989,321.834,499.5,322.336,500z"/>
						<path id="XMLID_24_" style="fill:#76EEEB;" d="M400.228,450.826c-6.448,9.235-16.763,17.148-25.03,17.911
							c-10.868,1.004-21.676-2.042-32.088-5.35c-12.259-3.889-36.151-17.802-36.057-32.917c0.046-7.444,5.174-14.58,12.166-16.93
							c15.757-5.297,30.784,12.421,47.378,11.756c9.046-0.362,17.739-6.244,26.584-4.296
							C410.429,424.8,408.546,438.913,400.228,450.826z"/>
						<path style="fill:#76EEEB;" d="M153.252,500h46.814c7.118-5.459,12.115-13.843,12.57-22.833
							c0.594-11.866-9.67-33.84-16.223-43.851c-3.789-5.787-10.908-9.956-17.52-8.079c-5.385,1.529-9.155,6.685-10.647,12.131
							c-3.318,12.103-0.923,16.671-7.893,27.283c-5.216,7.943-14.751,13.12-13.546,24.169
							C147.302,493.348,149.792,497.095,153.252,500z"/>
						<path style="fill:#76EEEB;" d="M417.953,497.16c2.499,1.216,5.111,2.122,7.784,2.84h74.899
							c6.855-7.685,8.314-20.285,3.851-29.952c-5.504-11.922-17.855-19.44-30.561-22.316c-19.246-4.356-43.83-2.286-60.07,10.2
							c-6.72,5.167-11.486,13.694-10.099,22.11C405.014,487.675,411.052,493.802,417.953,497.16z"/>
						<path style="fill:#76EEEB;" d="M523.755,468.694c4.734,9.687,7.714,20.613,15.153,28.371c1.026,1.069,2.125,2.046,3.282,2.935
							h42.135c12.613-9.001,19.251-25.328,18.356-40.959c-0.83-14.688-8.228-30.628-21.682-37.468
							c-9.193-4.673-20.464-4.952-29.872-0.739c-7.939,3.555-15.116,10.227-23.793,9.873c-6.444-0.263-11.997-4.412-18.004-6.784
							c-6.007-2.371-14.301-2.149-17.239,3.651c-2.079,4.103-0.334,9.333,2.892,12.592
							C504.651,449.935,517.074,455.024,523.755,468.694z"/>
						<path style="fill:#76EEEB;" d="M685.12,500c0.042-2.621-0.343-5.245-1.197-7.71c-3.463-9.991-13.279-16.934-23.638-18.529
							c-14.839-2.284-49.375,11.417-59.84,26.239H685.12z"/>
						<path id="XMLID_23_" style="fill:#76EEEB;" d="M736.409,438.631c2.427,12.892-24.333,23.35-34.249,23.596
							c-15.127,0.375-30.245-4.014-45.268-2.173c-13.644,1.672-55.196-1.709-52.849-24.303c0.555-5.339,4.927-9.683,9.909-11.55
							c4.982-1.867,10.479-1.668,15.754-1.02c22.157,2.721,44.131,12.887,65.975,8.252c5.895-1.251,11.545-3.559,17.485-4.568
							c5.939-1.008,12.517-0.528,17.241,3.244C734.04,433.011,735.891,435.876,736.409,438.631z"/>
						<path style="fill:#76EEEB;" d="M749.833,471.575c-9.564,0.774-18.919,3.287-27.201,8.115
							c-8.112,4.728-14.984,11.917-19.192,20.31h46.394V471.575z"/>
						<path style="fill:#76EEEB;" d="M749.833,354.586c-7.518-0.907-15-1.959-22.021-4.729
							c-9.641-3.803-17.911-10.669-27.685-14.106c-14.223-5.003-39.033-1.449-47.136,13.368
							c-7.578,13.856,1.249,36.847,10.737,47.388c11.448,12.718,29.798,18.657,46.431,15.026
							c13.576-2.964,25.958-11.746,39.673-12.345V354.586z"/>
						<path style="fill:#76EEEB;" d="M588.915,407.904c8.143,1.839,16.62,0.698,24.886-0.45c5.992-0.832,11.984-1.665,17.976-2.497
							c1.818-0.253,3.664-0.513,5.342-1.262c5.14-2.293,7.396-8.582,7.332-14.258c-0.192-17.074-16.565-30.359-33.268-32.979
							c-16.703-2.621-33.512,2.727-49.589,8.007c-11.672,3.834-37.131,9.211-16.613,21.565
							C557.613,393.635,574.552,404.66,588.915,407.904z"/>
						<path style="fill:#76EEEB;" d="M536.627,396.414c3.732,3.54,6.272,9.278,3.95,13.887c-2.534,5.029-9.135,5.985-14.719,6.109
							c-6.832,0.151-13.815-0.026-20.251-2.347c-6.436-2.322-12.323-7.128-14.399-13.706c-1.641-5.199-0.732-11.001,1.728-15.86
							c3.658-7.226,18.889-23.449,26.032-12.426c2.076,3.204,0.424,8.576,2.602,12.24
							C524.843,389.82,532.109,392.128,536.627,396.414z"/>
						<path style="fill:#76EEEB;" d="M428.741,427.561c6.934,7.341,18.183,9.442,27.91,6.911
							c10.375-2.7,19.886-11.372,20.517-22.176c0.626-10.732-8.077-20.663-18.443-23.094
							C438.229,384.397,409.31,406.991,428.741,427.561z"/>
						<path style="fill:#76EEEB;" d="M274.381,398.358c6.338,2.398,12.989,4.837,19.703,3.973
							c10.716-1.378,19.514-10.92,30.315-10.734c12.975,0.223,23.72,14.507,36.403,11.729c8.959-1.962,14.191-12.73,12.108-21.748
							c-2.082-9.018-9.857-15.857-18.47-19.027c-8.613-3.171-18.018-3.227-27.174-2.78c-9.156,0.447-18.382,1.357-27.448-0.009
							c-18.062-2.722-55.868-24.82-67.709,0.461C220.486,385.041,259.562,392.75,274.381,398.358z"/>
						<path style="fill:#76EEEB;" d="M369.663,345.527c1.011,5.672,4.617,10.484,8.306,14.881c3.689,4.397,7.657,8.763,9.657,14.161
							c2.052,5.538,1.838,11.65,3.081,17.428c1.243,5.779,4.741,11.835,10.49,12.947c6.764,1.308,12.668-4.74,16.168-10.732
							c3.5-5.991,6.56-13.003,12.828-15.887c9.649-4.439,21.244,3.413,31.35,0.174c7.765-2.489,12.357-11.349,11.77-19.557
							s-5.42-15.596-11.44-21.14c-6.184-5.694-14.357-9.965-22.661-8.925c-4.882,0.612-9.443,3.004-14.349,3.373
							c-8.72,0.657-16.621-5.081-25.248-6.52C388.265,323.838,367.056,330.899,369.663,345.527z"/>
						<path style="fill:#76EEEB;" d="M9.152,341.784c-4.88,5.656-6.888,14.255-3.415,20.887c3.241,6.188,10.219,9.325,16.904,11.169
							c6.686,1.844,13.787,2.934,19.547,6.828c6.492,4.388,10.919,12.11,18.429,14.281c7.25,2.095,14.75-1.732,21.339-5.436
							c6.374-3.583,12.837-7.232,18.012-12.426c5.175-5.194,8.989-12.223,8.738-19.587c-0.395-11.584-10.431-20.544-20.846-25.409
							c-13.039-6.091-27.912-7.968-42.065-5.596C34.146,328.446,17.203,332.454,9.152,341.784z"/>
						<path style="fill:#76EEEB;" d="M121.773,379.281c-0.455,9.292,4.968,18.612,13.226,22.73
							c15.702,7.831,35.65-3.188,51.709,3.866c3.921,1.722,7.772,4.538,12.008,3.949c2.919-0.406,5.372-2.395,7.43-4.527
							c11.111-11.511,14.738-29.779,8.881-44.727c-5.857-14.948-20.878-25.76-36.778-26.471
							c-14.835-0.664-25.663,6.905-35.362,17.222C134.631,360.106,122.45,365.458,121.773,379.281z"/>
						<path style="fill:#76EEEB;" d="M38.466,245.803c-11.169-12.516-25.666-21.448-38.299-32.42v103.211
							c17.733,0.813,37.297-1.418,47.504-15.674C59.349,284.571,51.823,260.786,38.466,245.803z"/>
						<path style="fill:#76EEEB;" d="M75.647,260.481c-7.924,13.825-9.097,32.57,0.688,45.12
							c8.341,10.699,22.326,14.758,35.367,18.213c11.127,2.948,23.166,5.853,33.861,1.575c9.708-3.884,16.772-13.188,26.821-16.054
							c10.518-3,21.639,1.793,30.889,7.672c9.251,5.878,18.055,13.093,28.678,15.687c17.375,4.243,37.059-6.69,42.82-23.785
							c5.76-17.095-3.232-37.889-19.562-45.236c-11.369-5.115-24.891-4.148-35.805-10.191
							c-11.414-6.319-17.889-19.126-28.541-26.682c-10.768-7.636-24.886-9.118-37.858-6.903
							C124.75,224.722,90.959,233.768,75.647,260.481z"/>
						<path style="fill:#76EEEB;" d="M297.354,311.216c6.435,14.32,19.737,28.536,35.033,25.609
							c17.008-3.254,24.404-25.132,40.528-31.494c17.444-6.882,36.307,7.001,55.02,6.242c12.216-0.496,24.549-7.237,36.132-3.286
							c17.164,5.855,21.052,30.983,37.721,38.149c16.567,7.123,35.724-9.954,36.733-28.114c1.009-18.16-10.523-34.668-23.739-47.02
							c-13.217-12.352-28.729-22.38-39.879-36.662c-10.627-13.612-16.939-30.673-29.622-42.353
							C370.734,123.631,258.259,224.223,297.354,311.216z"/>
						<path style="fill:#76EEEB;" d="M749.833,265.87c-4.055-3.353-7.409-7.274-9.571-12.125
							c-4.573-10.261-2.484-22.234-4.768-33.248c-4.284-20.654-24.25-35.455-44.959-38.226c-20.709-2.77-41.632,4.568-59.593,15.344
							c-9.347,5.608-18.766,12.376-29.628,12.847c-25.336,1.098-51.951-28.775-78.554-13.903
							c-32.666,18.262-4.357,56.146,12.458,73.224c10.285,10.446,20.505,22.654,21.556,37.348c0.908,12.7-4.135,28.543,5.987,36.132
							c5.993,4.493,14.356,3.157,21.579,1.26c37.603-9.878,75.141-29.612,113.222-21.825c14.023,2.868,27.023,9.359,40.56,14.039
							c3.813,1.318,7.738,2.48,11.712,3.381V265.87z"/>
						<path style="fill:#76EEEB;" d="M749.833,0H608.238c-9.293,12.529-15.602,27.015-17.247,42.622
							c-2.677,25.638,7.151,50.876,18.917,73.732c9.854,19.135,23.939,39.377,45.112,42.197c15.08,2.022,31.574-5.37,45.061,1.764
							c7.992,4.224,13.193,12.877,21.517,16.354c9.328,3.884,19.88,0.145,28.236-5.995V0z"/>
						<path style="fill:#76EEEB;" d="M205.586,217.21c4.528,3.411,12.171,0.45,13.28-5.145c1.109-5.595-4.816-11.3-10.295-9.914
							c-5.479,1.386-8.042,9.24-4.453,13.646c-1.081,2.115-0.943-0.952,0.655,0.797C206.372,218.343,203.413,218.129,205.586,217.21
							z"/>
						<path style="fill:#76EEEB;" d="M220.471,228.515c4.625-0.497,9.522,5.637,4.062,8.834c-4.095,2.398-11.15-2.677-7.3-7.085
							C218.186,229.172,219.32,228.638,220.471,228.515z"/>
						<path style="fill:#76EEEB;" d="M0.167,169.394v10.866C7.458,179.758,6.024,169.984,0.167,169.394z"/>
						<path style="fill:#76EEEB;" d="M11.528,183.311c2.165,0.818,3.861,3.03,2.695,5.365c-1.446,2.889-4.769,2.108-6.648,0.245
							c-1.509-1.496-2.087-3.689-0.014-5.242C8.69,182.833,10.198,182.808,11.528,183.311z"/>
						<path style="fill:#76EEEB;" d="M207.306,165.814c-8.795-37.227-27.636-71.492-35.347-108.963
							C167.395,34.741,170.302,17.615,175.26,0H0.167v161.82c20.618,15.008,37.61,39.775,62.792,44.414
							c35.296,6.503,70.427-29.771,104.169-17.435c10.593,3.863,21.848,12.323,31.842,8.19c0.535-0.206,1.071-0.464,1.593-0.76
							c0.752-0.425,1.428-0.889,2.065-1.404c0-0.013,0-0.013,0.013-0.013c0.434-0.348,0.854-0.734,1.211-1.133
							c0.013-0.013,0.013-0.013,0.025-0.026c1.313-1.365,2.32-2.962,3.072-4.713c0.892-2.086,1.441-4.404,1.708-6.838
							c-0.013-0.013-0.013-0.013,0-0.013c0.102-0.979,0.166-1.957,0.191-2.962C208.963,174.66,208.301,169.998,207.306,165.814z
							 M78.817,194.413c-2.027,1.429-4.564,1.932-7.036,2.138c-10.44,0.837-21.173-3.181-28.553-10.713
							c-7.648-7.803,6.565-8.151,11.039-6.387c3.098,1.236,5.953,3.193,9.229,3.76c3.352,0.579,6.781-0.361,10.185-0.296
							c3.391,0.077,7.266,1.7,8.018,5.048C82.233,190.408,80.843,192.971,78.817,194.413z"/>
						<path style="fill:#76EEEB;" d="M600.195,135.991c-3.684-12.928-12.683-23.474-21.122-33.853
							c-8.438-10.392-16.851-21.659-18.916-34.947c-2.396-15.439,4.156-30.672,8.834-45.571c2.154-6.902,3.837-14.358,4.117-21.62
							h-370.02c-0.357,1.416-0.688,2.871-0.994,4.352c-7.98,39.48,5.532,75.47,21.466,110.959
							c4.423,9.864,8.859,19.83,12.683,29.977c0.191,0.502,0.37,0.992,0.561,1.494c0.484,1.326,0.969,2.653,1.428,3.992
							c0.115,0.309,0.217,0.618,0.319,0.927c0.344,0.979,0.676,1.957,0.994,2.936c0.331,1.004,0.663,2.009,0.969,3.013
							c0.574,1.803,1.109,3.618,1.619,5.434c0.166,0.618,0.331,1.223,0.497,1.841c2.435,9.13,4.079,18.414,4.5,27.891
							c0.331,7.443-0.089,15.066,2.103,22.174c2.192,7.108,7.852,13.817,15.207,14.396c12.683,1.004,19.21-14.383,24.385-26.114
							c11.179-25.38,33.588-45.416,59.771-53.786c1.874-0.605,3.773-1.133,5.685-1.622c0.013,0,0.013,0,0.025,0
							c0.268-0.064,0.535-0.129,0.816-0.193c1.147-0.283,2.294-0.528,3.454-0.747c0.089-0.039,0.178-0.051,0.268-0.051
							c0.854-0.193,1.734-0.348,2.6-0.476c1.721-0.296,3.454-0.541,5.188-0.721c0.319-0.051,0.65-0.077,0.969-0.103
							c2.766-0.283,5.545-0.438,8.324-0.464c1.746-0.026,3.48,0,5.226,0.077h0.013c0.612,0.026,1.224,0.051,1.836,0.09
							c19.783,1.21,39.235,8.408,54.799,20.822c13.078,10.43,26.272,25.251,42.792,22.908c12.581-1.79,21.389-13.186,32.161-20.023
							c0.446-0.283,0.892-0.554,1.351-0.811c2.141-1.262,4.359-2.331,6.705-3.077c0.51-0.167,1.02-0.322,1.542-0.451
							c0.077-0.026,0.153-0.039,0.229-0.051h0.013c0.128-0.039,0.255-0.077,0.382-0.09c0.574-0.142,1.147-0.258,1.721-0.361
							c1.135-0.18,2.269-0.296,3.429-0.361c0.166-0.013,0.344-0.013,0.523-0.013h0.013c0.625-0.026,1.249-0.039,1.886-0.013
							c0.612,0.013,1.211,0.039,1.823,0.077c19.273,1.391,39.452,17.177,56.482,7.662
							C600.488,165.002,603.891,148.893,600.195,135.991z M234.177,107.534c-2.167-0.425-3.505-2.575-4.563-4.571
							c-6.705-12.761-22.753-42.545-17.068-57.173c2.141-5.498,8.528-9.658,13.142-5.164c5.214,5.061,2.103,21.298,3.607,28.033
							c2.346,10.585,10.274,19.598,10.899,30.428c0.115,2.009-0.064,4.108-1.058,5.846
							C238.141,106.671,236.127,107.92,234.177,107.534z"/>
						<path style="fill:#76EEEB;" d="M478.95,216.178c3.144,3.703,6.288,7.406,9.432,11.109c0.92,1.083,1.959,2.237,3.354,2.462
							c2.213,0.358,4.133-1.958,4.246-4.219c0.113-2.261-1.024-4.373-2.153-6.328c-1.128-1.956-2.319-4.019-2.328-6.283
							c-0.011-2.553,1.495-4.942,1.4-7.493C492.559,196.241,465.147,199.92,478.95,216.178z"/>
						<path style="fill:#76EEEB;" d="M597.658,180.71c6.75-2.036,10.92,10.825,2.907,11.657c-5.993,0.622-9.786-8.374-3.817-11.297
							C597.055,180.92,597.359,180.801,597.658,180.71z"/>
						<path style="fill:#76EEEB;" d="M609.792,166.686c1.937,4.497,6.004,7.623,9.905,10.543c3.391,2.538,7.009,5.169,11.21,5.585
							c4.97,0.492,6.125-2.422,8.977-5.276c6.713-6.718,4.699-13.205-4.461-12.859c-5.411,0.204-9.641,5.477-11.743-3.096
							C620.152,147.194,604.494,154.385,609.792,166.686z"/>
						<path style="fill:#76EEEB;" d="M631.743,341.406c-3.794,2.729-2.655,9.648,2.434,10.93c8.82,2.222,7.893-13.762-0.364-11.847
							C633.007,340.675,632.318,340.993,631.743,341.406z"/>
						<path style="fill:#76EEEB;" d="M541.819,349.885c5.823,6.714-8.992,15.636-10.942,6.136c-1.07-5.221,6.699-10.56,10.69-6.412
							C541.655,349.7,541.739,349.792,541.819,349.885z"/>
						<path style="fill:#76EEEB;" d="M73.69,446.756c2.494,1.14,4.334,3.906,2.663,7.155c-2.669,5.191-9.628,3.026-9.531-2.555
							C66.91,446.325,70.754,445.414,73.69,446.756z"/>
					</g>
				</g>
			</g>
		</g>
		<g>
			<g>
				
					<text transform="matrix(1 0 0 1 128.7426 294.8469)" style="fill:#077A8D; font-family:'BuiltTitlingRg-Regular'; font-size:26.2271px;">PAGE YOU’RE LOOKING FOR IS NOT FOUND!</text>
				<path style="fill-rule:evenodd;clip-rule:evenodd;fill:#077A8D;" d="M508.958,314.201H242.321c-3.698,0-6.696,2.998-6.696,6.697
					v27.298c0,3.698,2.998,6.697,6.696,6.697h266.637c3.698,0,6.696-2.998,6.696-6.697v-27.298
					C515.654,317.199,512.656,314.201,508.958,314.201z"/>
				
					<text transform="matrix(1 0 0 1 291.1771 340.2707)" style="fill:#41CFDE; font-family:'BebasNeueBold'; font-size:17.7845px; letter-spacing:1;">RETURN TO THE WEBSITE</text>
			</g>
			<g>
				<path style="fill:#CD2A00;" d="M405.748,154.579c-8.733-5.932-20.073,20.532-15.864,23.396
					c7.076,4.804,11.724,12.919,11.724,22.12c0,9.229-4.676,17.368-11.795,22.167c-4.199,2.831,7.14,29.299,15.859,23.396
					c14.603-9.884,24.202-26.602,24.202-45.563C429.874,181.166,420.308,164.472,405.748,154.579z"/>
				<path style="fill:#F04500;" d="M393.053,222.816c6.88-5.501,10.926-13.828,10.926-22.722c0-8.859-4.021-17.168-10.858-22.668
					l13.225-19.503c13.288,9.926,21.157,25.515,21.157,42.171c0,16.693-7.895,32.3-21.23,42.222L393.053,222.816z"/>
				<path style="fill:#CD2A00;" d="M359.962,222.261c-7.119-4.8-11.795-12.938-11.795-22.167c0-9.201,4.648-17.315,11.724-22.12
					c4.146-2.82-7.194-29.285-15.864-23.396c-14.56,9.893-24.126,26.587-24.126,45.515c0,18.961,9.599,35.679,24.202,45.563
					C352.758,251.518,364.098,225.049,359.962,222.261z"/>
				<path style="fill:#CD2A00;" d="M346.739,244.604c-0.544,0-1.058-0.169-1.573-0.518c-14.632-9.904-23.368-26.35-23.368-43.992
					c0-17.607,8.708-34.035,23.295-43.946c0.519-0.353,1.038-0.524,1.586-0.524c2.362,0,5.546,3.102,8.311,8.095
					c3.367,6.082,4.325,11.627,3.751,12.744c-7.81,5.342-12.47,14.169-12.47,23.631c0,9.496,4.687,18.34,12.542,23.68
					c0.572,1.138-0.413,6.725-3.82,12.833C352.239,241.54,349.077,244.604,346.739,244.604
					C346.74,244.604,346.74,244.604,346.739,244.604z"/>
				<path style="fill:#F04500;" d="M356.721,222.816c-6.88-5.501-10.926-13.828-10.926-22.722c0-8.859,4.021-17.168,10.858-22.668
					l-13.225-19.503c-13.288,9.926-21.157,25.515-21.157,42.171c0,16.693,7.896,32.3,21.23,42.222L356.721,222.816z"/>
				<path style="fill:#F04500;" d="M356.721,222.816c-6.88-5.501-10.926-13.828-10.926-22.722c0-8.859,4.021-17.168,10.858-22.668
					l-13.225-19.503c-13.288,9.926-21.157,25.515-21.157,42.171c0,16.693,7.896,32.3,21.23,42.222L356.721,222.816z"/>
				<path style="fill:#FFDAC0;" d="M405.748,154.579l-15.864,23.396c-4.273-2.907-9.438-4.605-14.996-4.605
					c-5.558,0-10.723,1.698-14.996,4.605l-15.864-23.396c8.798-5.976,19.421-9.471,30.861-9.471
					C386.327,145.108,396.95,148.603,405.748,154.579z"/>
				<g>
					<path style="fill:#CD2A00;" d="M342.895,161.36c-2.406,1.989-4.607,4.178-6.579,6.539c0.013-0.009,0.025-0.018,0.038-0.027
						c2.534-1.721,5.2-3.192,7.966-4.41L342.895,161.36z"/>
					<path style="fill:#FF700A;" d="M406.883,161.355l-7.849,11.574c9.98,9.422,15.758,22.587,15.758,36.536
						c0,10.253-3.127,20.073-8.741,28.301l0.76,1.121c11.548-9.506,18.319-23.685,18.319-38.793
						C425.131,185.023,418.387,170.864,406.883,161.355z"/>
				</g>
				<path style="fill:#FF700A;" d="M345.787,234.72l7.784-11.482c-6.422-5.912-10.146-14.268-10.146-23.144
					c0-6.556,2.036-12.834,5.689-18.05c-0.758,0.428-1.503,0.886-2.229,1.38c-8.639,5.866-13.799,15.602-13.799,26.041
					C333.086,219.459,337.809,228.792,345.787,234.72z"/>
				<path style="fill:#FFF6E7;" d="M405.672,245.657c-8.783,5.947-19.379,9.424-30.785,9.424c-11.406,0-22.001-3.476-30.785-9.424
					l15.859-23.396c4.264,2.874,9.395,4.553,14.925,4.553c5.53,0,10.662-1.679,14.925-4.553L405.672,245.657z"/>
				<path style="fill:#FFF6E7;" d="M372.566,149.909c-0.398,0.018-0.796,0.039-1.193,0.066c-0.219,0.015-0.437,0.033-0.655,0.051
					c-0.37,0.03-0.739,0.064-1.107,0.103c-0.221,0.023-0.442,0.047-0.662,0.073c-0.378,0.045-0.756,0.095-1.132,0.148
					c-0.201,0.028-0.403,0.055-0.603,0.085c-0.456,0.07-0.91,0.148-1.363,0.23c-0.117,0.021-0.235,0.039-0.352,0.061
					c-0.566,0.107-1.13,0.224-1.692,0.351c-0.159,0.036-0.317,0.076-0.476,0.114c-0.404,0.095-0.807,0.193-1.209,0.298
					c-0.205,0.054-0.409,0.111-0.614,0.167c-0.357,0.098-0.713,0.2-1.067,0.306c-0.212,0.064-0.424,0.129-0.635,0.195
					c-0.353,0.111-0.705,0.227-1.055,0.345c-0.2,0.068-0.401,0.135-0.6,0.205c-0.392,0.139-0.782,0.284-1.171,0.432
					c-0.151,0.058-0.304,0.112-0.454,0.171c-0.536,0.211-1.069,0.43-1.598,0.659c-0.101,0.044-0.201,0.091-0.301,0.136
					c-0.428,0.189-0.854,0.383-1.278,0.584c-0.18,0.086-0.359,0.175-0.538,0.263c-0.344,0.169-0.687,0.34-1.027,0.517
					c-0.194,0.101-0.387,0.204-0.58,0.307c-0.154,0.083-0.307,0.169-0.461,0.254l2.962,4.368c3.534-0.777,7.165-1.178,10.845-1.178
					c9.63,0,18.927,2.718,26.988,7.864l7.496-11.054c-0.154-0.084-0.306-0.171-0.461-0.254c-0.193-0.103-0.386-0.206-0.58-0.307
					c-0.34-0.176-0.682-0.348-1.026-0.516c-0.18-0.088-0.358-0.178-0.539-0.264c-0.422-0.201-0.847-0.394-1.274-0.582
					c-0.102-0.045-0.203-0.094-0.306-0.138c-0.529-0.229-1.061-0.448-1.597-0.659c-0.152-0.06-0.306-0.115-0.459-0.173
					c-0.387-0.148-0.776-0.293-1.167-0.431c-0.2-0.071-0.401-0.138-0.602-0.206c-0.35-0.119-0.701-0.234-1.053-0.345
					c-0.212-0.067-0.424-0.132-0.637-0.196c-0.354-0.106-0.71-0.207-1.066-0.305c-0.204-0.056-0.409-0.114-0.614-0.167
					c-0.401-0.105-0.804-0.203-1.208-0.298c-0.159-0.038-0.318-0.078-0.478-0.114c-0.561-0.126-1.125-0.244-1.692-0.351
					c-0.116-0.022-0.233-0.04-0.349-0.061c-0.453-0.082-0.908-0.16-1.364-0.23c-0.201-0.031-0.402-0.057-0.603-0.085
					c-0.377-0.053-0.755-0.104-1.133-0.148c-0.22-0.026-0.44-0.049-0.66-0.072c-0.369-0.039-0.738-0.073-1.109-0.103
					c-0.218-0.018-0.436-0.036-0.654-0.051c-0.397-0.027-0.795-0.048-1.193-0.066c-0.188-0.008-0.375-0.02-0.563-0.026
					c-0.585-0.02-1.171-0.033-1.758-0.033s-1.173,0.012-1.758,0.033C372.941,149.889,372.754,149.9,372.566,149.909z"/>
				<path style="fill:#FFDAC0;" d="M372.934,231.492c-0.505-0.031-1.008-0.07-1.508-0.125c-0.013-0.001-0.027-0.002-0.04-0.004
					c-0.512-0.057-1.021-0.13-1.529-0.212c-0.128-0.021-0.256-0.042-0.384-0.064c-0.482-0.084-0.963-0.176-1.44-0.282
					c-0.026-0.006-0.053-0.01-0.079-0.016c-0.498-0.112-0.993-0.24-1.484-0.377c-0.125-0.035-0.25-0.07-0.374-0.107
					c-0.458-0.133-0.913-0.274-1.364-0.428c-0.037-0.013-0.075-0.024-0.113-0.037c-0.48-0.166-0.955-0.347-1.427-0.536
					c-0.122-0.049-0.244-0.099-0.366-0.15c-0.43-0.179-0.856-0.365-1.279-0.563c-0.037-0.018-0.076-0.032-0.113-0.05l-7.218,10.647
					c3.297,1.146,6.781,1.738,10.333,1.738c6.293,0,12.371-1.855,17.576-5.363c2.587-1.744,4.858-3.838,6.781-6.189l-0.565-0.833
					c-0.087,0.041-0.177,0.076-0.264,0.116c-0.364,0.168-0.73,0.33-1.1,0.484c-0.116,0.049-0.232,0.099-0.349,0.146
					c-0.416,0.168-0.837,0.324-1.259,0.473c-0.131,0.046-0.262,0.093-0.393,0.138c-0.439,0.149-0.882,0.287-1.328,0.416
					c-0.125,0.036-0.251,0.071-0.377,0.105c-0.464,0.128-0.931,0.249-1.401,0.355c-0.077,0.018-0.155,0.032-0.232,0.049
					c-0.452,0.099-0.906,0.187-1.362,0.266c-0.082,0.014-0.164,0.03-0.246,0.044c-0.491,0.081-0.985,0.148-1.481,0.205
					c-0.104,0.012-0.208,0.024-0.312,0.035c-0.497,0.053-0.997,0.095-1.498,0.124c-0.086,0.005-0.173,0.008-0.259,0.012
					c-0.529,0.027-1.059,0.044-1.592,0.044c-0.522,0-1.042-0.017-1.56-0.043C373.196,231.508,373.065,231.5,372.934,231.492z"/>
			</g>
			<path style="fill:#077A8D;" d="M309.185,211.627c0.814,3.525,1.22,6.87,1.22,10.033c0,3.165-0.406,6.508-1.22,10.033h-7.186
				v15.998c-1.898,0.451-3.775,0.746-5.626,0.881c-1.854,0.136-3.639,0.204-5.355,0.204c-1.809,0-3.639-0.068-5.491-0.204
				c-1.853-0.135-3.775-0.43-5.762-0.881v-15.998h-43.114l-2.305-4.067l36.471-78.093c3.525,0.453,6.982,1.243,10.371,2.372
				c3.39,1.131,6.664,2.915,9.83,5.355l-24.675,54.366h13.422v-15.185c1.987-0.451,3.908-0.745,5.762-0.881
				c1.852-0.135,3.682-0.203,5.491-0.203c1.716,0,3.502,0.068,5.355,0.203c1.852,0.136,3.728,0.43,5.626,0.881v15.185H309.185z
				 M512.405,211.627c0.814,3.525,1.22,6.87,1.22,10.033c0,3.165-0.406,6.508-1.22,10.033h-7.186v15.998
				c-1.898,0.451-3.775,0.746-5.626,0.881c-1.853,0.136-3.639,0.204-5.355,0.204c-1.809,0-3.639-0.068-5.491-0.204
				c-1.854-0.135-3.775-0.43-5.762-0.881v-15.998h-43.114l-2.305-4.067l36.471-78.093c3.525,0.453,6.982,1.243,10.371,2.372
				c3.39,1.131,6.665,2.915,9.83,5.355l-24.675,54.366h13.422v-15.185c1.987-0.451,3.908-0.745,5.762-0.881
				c1.852-0.135,3.682-0.203,5.491-0.203c1.716,0,3.502,0.068,5.355,0.203c1.852,0.136,3.728,0.43,5.626,0.881v15.185H512.405z"/>
		</g>
	</g>
</g>
<g id="BACKGROUND1">
</g>
<g id="DESIGNED_BY_FREEPIK">
	<g>
		<path style="fill:#077A8D;" d="M306.096,479.231c-0.246,0-0.434,0.085-0.567,0.255c-0.133,0.17-0.199,0.421-0.199,0.754v2.391
			c-0.305-0.331-0.617-0.578-0.937-0.739c-0.321-0.159-0.715-0.24-1.181-0.24c-0.807,0-1.458,0.283-1.952,0.848
			c-0.494,0.566-0.742,1.356-0.742,2.369c0,0.478,0.063,0.923,0.187,1.335c0.125,0.412,0.307,0.77,0.549,1.074
			c0.241,0.305,0.527,0.539,0.857,0.704c0.33,0.163,0.689,0.245,1.078,0.245c0.293,0,0.563-0.039,0.809-0.122
			c0.248-0.081,0.477-0.199,0.689-0.356c0.212-0.155,0.427-0.359,0.644-0.608v0.161c0,0.297,0.072,0.525,0.216,0.686
			c0.145,0.16,0.328,0.239,0.549,0.239c0.226,0,0.41-0.077,0.552-0.231c0.143-0.155,0.214-0.386,0.214-0.694v-7.146
			c0-0.305-0.066-0.534-0.199-0.691C306.53,479.309,306.341,479.231,306.096,479.231z M305.031,486.071
			c-0.14,0.306-0.328,0.534-0.563,0.682c-0.236,0.149-0.496,0.223-0.781,0.223c-0.281,0-0.539-0.079-0.777-0.236
			c-0.237-0.156-0.424-0.388-0.561-0.697c-0.136-0.309-0.204-0.682-0.204-1.121c0-0.416,0.064-0.78,0.193-1.095
			c0.128-0.315,0.309-0.556,0.543-0.724c0.233-0.168,0.498-0.252,0.795-0.252c0.285,0,0.547,0.082,0.786,0.245
			c0.239,0.165,0.429,0.402,0.569,0.712c0.141,0.311,0.21,0.682,0.21,1.114C305.241,485.38,305.172,485.764,305.031,486.071z"/>
		<path style="fill:#077A8D;" d="M313.46,485.151c0.233-0.121,0.35-0.385,0.35-0.793c0-0.438-0.113-0.87-0.339-1.294
			c-0.225-0.423-0.564-0.768-1.018-1.035c-0.453-0.268-0.996-0.4-1.628-0.4c-0.487,0-0.93,0.077-1.329,0.234
			c-0.4,0.157-0.737,0.381-1.009,0.674c-0.273,0.293-0.48,0.644-0.623,1.054c-0.143,0.409-0.214,0.853-0.214,1.332
			c0,1.016,0.289,1.822,0.866,2.415c0.577,0.593,1.387,0.89,2.427,0.89c0.455,0,0.858-0.059,1.207-0.178
			c0.351-0.118,0.641-0.267,0.873-0.448c0.231-0.179,0.404-0.367,0.519-0.564c0.115-0.196,0.172-0.367,0.172-0.513
			c0-0.167-0.052-0.294-0.155-0.386c-0.103-0.091-0.237-0.137-0.403-0.137c-0.154,0-0.273,0.036-0.356,0.107
			c-0.203,0.19-0.366,0.341-0.492,0.452c-0.126,0.111-0.265,0.215-0.415,0.312c-0.15,0.098-0.305,0.168-0.466,0.214
			c-0.16,0.046-0.337,0.068-0.531,0.068c-0.289,0-0.553-0.071-0.792-0.214c-0.239-0.142-0.432-0.354-0.576-0.635
			c-0.145-0.281-0.219-0.605-0.222-0.973h3.168C312.898,485.332,313.227,485.271,313.46,485.151z M309.306,484.412
			c0.056-0.546,0.212-0.959,0.472-1.238c0.259-0.279,0.59-0.418,0.994-0.418c0.424,0,0.764,0.137,1.024,0.413
			c0.259,0.275,0.409,0.69,0.448,1.243H309.306z"/>
		<path style="fill:#077A8D;" d="M318.886,484.714c-0.319-0.17-0.729-0.316-1.231-0.439c-0.425-0.103-0.756-0.19-0.997-0.26
			c-0.242-0.071-0.434-0.161-0.577-0.27c-0.142-0.109-0.213-0.248-0.213-0.419c0-0.186,0.096-0.341,0.29-0.465
			c0.194-0.126,0.437-0.187,0.73-0.187c0.285,0,0.511,0.047,0.677,0.142c0.166,0.095,0.31,0.222,0.433,0.38
			c0.151,0.19,0.284,0.332,0.401,0.427c0.116,0.096,0.258,0.143,0.424,0.143c0.231,0,0.408-0.06,0.532-0.178
			c0.124-0.119,0.186-0.272,0.186-0.457c0-0.171-0.058-0.345-0.175-0.523c-0.116-0.177-0.286-0.34-0.51-0.486
			c-0.223-0.146-0.502-0.264-0.837-0.35c-0.333-0.088-0.71-0.131-1.13-0.131c-0.535,0-0.99,0.086-1.367,0.259
			c-0.378,0.172-0.664,0.403-0.858,0.691c-0.194,0.289-0.291,0.596-0.291,0.92c0,0.364,0.105,0.671,0.315,0.92
			c0.21,0.249,0.489,0.45,0.84,0.602c0.35,0.153,0.804,0.298,1.362,0.436c0.494,0.119,0.849,0.244,1.065,0.375
			c0.216,0.131,0.323,0.337,0.323,0.622c0,0.186-0.104,0.351-0.311,0.496c-0.207,0.144-0.474,0.217-0.798,0.217
			c-0.4,0-0.715-0.072-0.947-0.214c-0.231-0.143-0.431-0.358-0.597-0.647c-0.082-0.149-0.17-0.267-0.261-0.35
			c-0.091-0.083-0.221-0.124-0.391-0.124c-0.194,0-0.355,0.063-0.481,0.19c-0.128,0.126-0.19,0.278-0.19,0.456
			c0,0.27,0.099,0.537,0.297,0.805c0.198,0.266,0.505,0.489,0.92,0.666c0.415,0.178,0.914,0.267,1.495,0.267
			c0.61,0,1.127-0.082,1.552-0.245c0.425-0.165,0.747-0.406,0.964-0.725c0.218-0.318,0.326-0.702,0.326-1.149
			c0-0.297-0.082-0.56-0.246-0.791C319.446,485.085,319.204,484.884,318.886,484.714z"/>
		<path style="fill:#077A8D;" d="M321.512,479.302c-0.217,0-0.409,0.074-0.573,0.223c-0.164,0.149-0.246,0.337-0.246,0.567
			c0,0.254,0.08,0.45,0.24,0.588c0.16,0.139,0.353,0.208,0.578,0.208c0.217,0,0.405-0.071,0.563-0.211
			c0.158-0.14,0.238-0.335,0.238-0.585c0-0.258-0.081-0.453-0.243-0.588C321.907,479.369,321.722,479.302,321.512,479.302z"/>
		<path style="fill:#077A8D;" d="M321.493,481.64c-0.237,0-0.43,0.081-0.578,0.243c-0.149,0.162-0.222,0.404-0.222,0.724v4.635
			c0,0.316,0.073,0.56,0.222,0.73c0.148,0.171,0.341,0.255,0.578,0.255c0.238,0,0.433-0.083,0.588-0.249
			c0.154-0.166,0.231-0.411,0.231-0.736v-4.682c0-0.289-0.077-0.514-0.231-0.677C321.927,481.721,321.731,481.64,321.493,481.64z"/>
		<path style="fill:#077A8D;" d="M328.632,481.64c-0.217,0-0.395,0.077-0.535,0.231c-0.138,0.155-0.207,0.372-0.207,0.653v0.22
			c-0.289-0.376-0.602-0.652-0.937-0.829c-0.337-0.175-0.735-0.264-1.193-0.264c-0.384,0-0.736,0.068-1.056,0.204
			c-0.32,0.137-0.603,0.339-0.849,0.608c-0.245,0.269-0.433,0.599-0.566,0.991c-0.133,0.391-0.199,0.831-0.199,1.317
			c0,0.653,0.109,1.228,0.326,1.727c0.217,0.499,0.529,0.886,0.934,1.163c0.406,0.277,0.88,0.416,1.422,0.416
			c0.45,0,0.839-0.092,1.165-0.273c0.327-0.182,0.614-0.447,0.864-0.796c-0.008,0.531-0.02,0.916-0.035,1.155
			c-0.016,0.24-0.07,0.465-0.164,0.674c-0.093,0.21-0.255,0.373-0.486,0.489c-0.231,0.117-0.557,0.176-0.977,0.176
			c-0.205,0-0.388-0.02-0.545-0.056c-0.159-0.038-0.294-0.095-0.406-0.172c-0.112-0.077-0.216-0.17-0.309-0.279
			c-0.093-0.109-0.183-0.217-0.27-0.323c-0.178-0.21-0.386-0.315-0.624-0.315c-0.189,0-0.352,0.062-0.486,0.188
			c-0.135,0.123-0.202,0.286-0.202,0.483c0,0.261,0.119,0.515,0.356,0.763c0.238,0.247,0.576,0.448,1.014,0.605
			c0.439,0.156,0.938,0.234,1.496,0.234c0.609,0,1.119-0.061,1.528-0.184c0.409-0.122,0.741-0.311,0.994-0.564
			c0.253-0.253,0.437-0.573,0.552-0.96c0.115-0.388,0.173-0.852,0.173-1.39v-4.706c0-0.384-0.051-0.678-0.155-0.882
			C329.152,481.742,328.945,481.64,328.632,481.64z M327.606,486.005c-0.151,0.29-0.345,0.508-0.586,0.653
			c-0.239,0.144-0.493,0.217-0.761,0.217c-0.455,0-0.826-0.168-1.113-0.505c-0.287-0.336-0.43-0.833-0.43-1.489
			c0-0.649,0.139-1.15,0.418-1.501c0.279-0.352,0.649-0.528,1.113-0.528c0.475,0,0.857,0.184,1.148,0.552
			c0.291,0.367,0.436,0.882,0.436,1.543C327.831,485.361,327.755,485.714,327.606,486.005z"/>
		<path style="fill:#077A8D;" d="M335.983,482.708c-0.165-0.339-0.417-0.602-0.753-0.788c-0.337-0.186-0.718-0.279-1.146-0.279
			c-0.439,0-0.827,0.088-1.165,0.264c-0.339,0.176-0.65,0.452-0.935,0.828v-0.196c0-0.193-0.034-0.358-0.104-0.493
			c-0.07-0.134-0.162-0.234-0.276-0.302c-0.115-0.068-0.244-0.101-0.387-0.101c-0.233,0-0.417,0.076-0.552,0.228
			c-0.134,0.152-0.201,0.383-0.201,0.692v4.682c0,0.316,0.076,0.56,0.226,0.73c0.15,0.171,0.342,0.255,0.576,0.255
			c0.241,0,0.438-0.082,0.59-0.245c0.152-0.165,0.228-0.411,0.228-0.74v-2.03c0-0.661,0.04-1.111,0.119-1.353
			c0.11-0.3,0.284-0.537,0.522-0.71c0.237-0.172,0.5-0.258,0.788-0.258c0.444,0,0.74,0.142,0.888,0.425
			c0.148,0.283,0.223,0.691,0.223,1.225v2.701c0,0.316,0.074,0.56,0.226,0.73c0.15,0.171,0.345,0.255,0.587,0.255
			c0.238,0,0.431-0.083,0.578-0.249c0.149-0.166,0.223-0.411,0.223-0.736v-3.015c0-0.356-0.016-0.649-0.048-0.879
			C336.16,483.12,336.091,482.906,335.983,482.708z"/>
		<path style="fill:#077A8D;" d="M342.826,485.151c0.234-0.121,0.35-0.385,0.35-0.793c0-0.438-0.113-0.87-0.338-1.294
			c-0.226-0.423-0.565-0.768-1.019-1.035c-0.453-0.268-0.995-0.4-1.628-0.4c-0.487,0-0.93,0.077-1.329,0.234
			c-0.4,0.157-0.736,0.381-1.009,0.674c-0.273,0.293-0.481,0.644-0.624,1.054c-0.142,0.409-0.214,0.853-0.214,1.332
			c0,1.016,0.289,1.822,0.867,2.415c0.578,0.593,1.387,0.89,2.427,0.89c0.455,0,0.858-0.059,1.208-0.178
			c0.35-0.118,0.64-0.267,0.871-0.448c0.232-0.179,0.405-0.367,0.52-0.564c0.115-0.196,0.172-0.367,0.172-0.513
			c0-0.167-0.051-0.294-0.154-0.386c-0.103-0.091-0.238-0.137-0.404-0.137c-0.154,0-0.273,0.036-0.356,0.107
			c-0.201,0.19-0.366,0.341-0.492,0.452c-0.128,0.111-0.266,0.215-0.415,0.312c-0.151,0.098-0.306,0.168-0.466,0.214
			c-0.161,0.046-0.338,0.068-0.532,0.068c-0.289,0-0.553-0.071-0.792-0.214c-0.239-0.142-0.431-0.354-0.575-0.635
			c-0.145-0.281-0.218-0.605-0.223-0.973h3.168C342.264,485.332,342.592,485.271,342.826,485.151z M338.672,484.412
			c0.056-0.546,0.212-0.959,0.471-1.238c0.259-0.279,0.591-0.418,0.995-0.418c0.423,0,0.764,0.137,1.024,0.413
			c0.259,0.275,0.409,0.69,0.448,1.243H338.672z"/>
		<path style="fill:#077A8D;" d="M349.21,479.231c-0.245,0-0.434,0.085-0.567,0.255c-0.132,0.17-0.2,0.421-0.2,0.754v2.391
			c-0.304-0.331-0.616-0.578-0.937-0.739c-0.32-0.159-0.714-0.24-1.181-0.24c-0.807,0-1.458,0.283-1.952,0.848
			c-0.495,0.566-0.741,1.356-0.741,2.369c0,0.478,0.062,0.923,0.187,1.335c0.124,0.412,0.307,0.77,0.549,1.074
			c0.241,0.305,0.527,0.539,0.857,0.704c0.33,0.163,0.689,0.245,1.077,0.245c0.293,0,0.563-0.039,0.81-0.122
			c0.247-0.081,0.476-0.199,0.688-0.356c0.211-0.155,0.426-0.359,0.643-0.608v0.161c0,0.297,0.073,0.525,0.217,0.686
			c0.145,0.16,0.328,0.239,0.549,0.239c0.226,0,0.409-0.077,0.552-0.231c0.143-0.155,0.214-0.386,0.214-0.694v-7.146
			c0-0.305-0.066-0.534-0.199-0.691C349.644,479.309,349.456,479.231,349.21,479.231z M348.145,486.071
			c-0.14,0.306-0.328,0.534-0.564,0.682c-0.235,0.149-0.495,0.223-0.781,0.223c-0.281,0-0.539-0.079-0.776-0.236
			c-0.238-0.156-0.425-0.388-0.561-0.697c-0.137-0.309-0.205-0.682-0.205-1.121c0-0.416,0.064-0.78,0.193-1.095
			c0.129-0.315,0.31-0.556,0.543-0.724c0.233-0.168,0.499-0.252,0.795-0.252c0.285,0,0.547,0.082,0.786,0.245
			c0.239,0.165,0.43,0.402,0.57,0.712c0.14,0.311,0.211,0.682,0.211,1.114C348.355,485.38,348.285,485.764,348.145,486.071z"/>
		<path style="fill:#077A8D;" d="M359.531,483.145c-0.224-0.484-0.538-0.854-0.943-1.111c-0.406-0.254-0.877-0.382-1.416-0.382
			c-0.467,0-0.859,0.084-1.175,0.252c-0.317,0.168-0.627,0.411-0.932,0.727v-2.474c0-0.297-0.068-0.525-0.202-0.686
			c-0.134-0.16-0.326-0.24-0.575-0.24c-0.237,0-0.423,0.084-0.555,0.252c-0.132,0.168-0.198,0.416-0.198,0.744v7.075
			c0,0.304,0.068,0.534,0.205,0.692c0.136,0.156,0.319,0.233,0.549,0.233c0.226,0,0.412-0.077,0.558-0.233
			c0.147-0.158,0.22-0.388,0.22-0.692v-0.161c0.177,0.206,0.322,0.361,0.43,0.464c0.109,0.103,0.241,0.203,0.395,0.299
			c0.154,0.098,0.341,0.176,0.561,0.234c0.22,0.06,0.454,0.089,0.704,0.089c0.407,0,0.78-0.082,1.118-0.245
			c0.338-0.165,0.626-0.398,0.864-0.698c0.237-0.301,0.418-0.656,0.543-1.065c0.125-0.41,0.187-0.859,0.187-1.35
			C359.867,484.204,359.755,483.628,359.531,483.145z M357.799,486.444c-0.295,0.354-0.646,0.531-1.053,0.531
			c-0.479,0-0.866-0.174-1.16-0.52c-0.295-0.346-0.442-0.841-0.442-1.486c0-0.439,0.069-0.819,0.207-1.137
			c0.138-0.318,0.328-0.562,0.57-0.73c0.24-0.168,0.516-0.252,0.825-0.252c0.3,0,0.564,0.084,0.789,0.252
			c0.225,0.168,0.399,0.406,0.522,0.715c0.123,0.308,0.184,0.677,0.184,1.104C358.241,485.583,358.093,486.09,357.799,486.444z"/>
		<path style="fill:#077A8D;" d="M365.53,481.738c-0.112-0.066-0.229-0.098-0.353-0.098c-0.171,0-0.303,0.03-0.395,0.09
			c-0.093,0.059-0.181,0.173-0.264,0.343c-0.083,0.17-0.176,0.406-0.279,0.706l-1.3,3.709l-1.371-3.988
			c-0.091-0.277-0.195-0.489-0.314-0.638c-0.119-0.148-0.295-0.223-0.528-0.223c-0.135,0-0.264,0.035-0.389,0.107
			c-0.124,0.071-0.222,0.166-0.294,0.285c-0.071,0.118-0.107,0.246-0.107,0.385c0,0.131,0.062,0.341,0.184,0.629l1.994,5.021
			l-0.148,0.362c-0.111,0.265-0.209,0.466-0.294,0.602c-0.085,0.137-0.181,0.233-0.287,0.288c-0.107,0.056-0.254,0.083-0.44,0.083
			c-0.074,0-0.164-0.012-0.266-0.035c-0.083-0.024-0.168-0.037-0.256-0.037c-0.221,0-0.388,0.051-0.5,0.152
			c-0.113,0.1-0.17,0.244-0.17,0.43c0,0.273,0.118,0.461,0.356,0.565c0.237,0.103,0.593,0.154,1.068,0.154
			c0.487,0,0.873-0.074,1.161-0.223c0.287-0.148,0.517-0.361,0.691-0.638c0.174-0.277,0.353-0.658,0.534-1.145l2.113-5.531
			c0.051-0.142,0.095-0.283,0.13-0.421c0.037-0.139,0.061-0.246,0.078-0.321c0-0.123-0.032-0.239-0.093-0.35
			C365.731,481.891,365.643,481.803,365.53,481.738z"/>
		<path style="fill:#077A8D;" d="M387.565,480.655c0.087-0.171,0.273-0.259,0.565-0.259c0.107,0,0.242,0.014,0.389,0.035
			c0.156,0.026,0.267,0.037,0.33,0.037c0.134,0,0.253-0.054,0.349-0.16c0.1-0.107,0.15-0.236,0.15-0.384
			c0-0.467-0.471-0.696-1.421-0.696c-0.533,0-0.953,0.068-1.259,0.204c-0.307,0.137-0.527,0.354-0.654,0.653
			c-0.129,0.3-0.192,0.702-0.192,1.211v0.486h-0.387c-0.543,0-0.814,0.192-0.814,0.582c0,0.174,0.066,0.317,0.196,0.423
			c0.132,0.111,0.315,0.164,0.558,0.164h0.447v4.293c0,0.32,0.074,0.563,0.227,0.73c0.155,0.171,0.344,0.254,0.573,0.254
			c0.243,0,0.438-0.083,0.589-0.254c0.155-0.167,0.231-0.41,0.231-0.73v-4.293h0.395c0.29,0,0.516-0.035,0.68-0.107
			c0.166-0.072,0.245-0.241,0.245-0.503c0-0.374-0.306-0.56-0.925-0.56h-0.395v-0.386
			C387.443,481.073,387.486,480.827,387.565,480.655z"/>
		<path style="fill:#077A8D;" d="M393.569,482.57c0-0.28-0.16-0.507-0.482-0.678c-0.321-0.171-0.648-0.255-0.991-0.255
			c-0.342,0-0.61,0.084-0.818,0.255c-0.203,0.171-0.4,0.421-0.593,0.755c-0.013-0.334-0.079-0.584-0.198-0.755
			c-0.12-0.171-0.313-0.255-0.583-0.255c-0.526,0-0.788,0.364-0.788,1.093v4.513c0,0.323,0.078,0.569,0.226,0.733
			c0.149,0.168,0.34,0.25,0.578,0.25c0.237,0,0.432-0.081,0.586-0.246c0.151-0.162,0.234-0.41,0.234-0.737v-1.355
			c0-0.486,0.013-0.899,0.044-1.238c0.034-0.337,0.09-0.631,0.171-0.877c0.083-0.243,0.201-0.426,0.353-0.554
			c0.149-0.122,0.344-0.186,0.582-0.186c0.171,0,0.373,0.037,0.602,0.108c0.226,0.073,0.37,0.112,0.432,0.112
			c0.157,0,0.304-0.064,0.442-0.195C393.5,482.932,393.569,482.766,393.569,482.57z"/>
		<path style="fill:#077A8D;" d="M399.173,485.149c0.233-0.122,0.35-0.386,0.35-0.791c0-0.441-0.112-0.871-0.338-1.296
			c-0.222-0.423-0.566-0.769-1.018-1.034c-0.454-0.27-0.997-0.403-1.629-0.403c-0.488,0-0.931,0.078-1.329,0.234
			c-0.401,0.156-0.736,0.379-1.008,0.674c-0.276,0.295-0.483,0.643-0.624,1.054c-0.144,0.41-0.217,0.855-0.217,1.334
			c0,1.016,0.292,1.822,0.869,2.417c0.577,0.593,1.385,0.888,2.428,0.888c0.454,0,0.858-0.06,1.207-0.178
			c0.349-0.117,0.639-0.268,0.874-0.447c0.233-0.181,0.405-0.367,0.522-0.566c0.111-0.195,0.167-0.365,0.167-0.512
			c0-0.167-0.049-0.294-0.152-0.386c-0.105-0.092-0.238-0.138-0.405-0.138c-0.152,0-0.271,0.038-0.355,0.109
			c-0.203,0.189-0.367,0.34-0.494,0.449c-0.127,0.114-0.264,0.217-0.415,0.312c-0.15,0.097-0.306,0.17-0.465,0.213
			c-0.161,0.049-0.337,0.07-0.531,0.07c-0.29,0-0.553-0.071-0.793-0.213c-0.24-0.144-0.431-0.356-0.577-0.635
			c-0.144-0.28-0.216-0.607-0.222-0.974h3.17C398.612,485.33,398.94,485.27,399.173,485.149z M395.018,484.409
			c0.055-0.546,0.214-0.957,0.472-1.236c0.259-0.281,0.591-0.418,0.995-0.418c0.426,0,0.764,0.136,1.025,0.412
			c0.26,0.273,0.406,0.688,0.445,1.241H395.018z"/>
		<path style="fill:#077A8D;" d="M405.913,485.149c0.231-0.122,0.35-0.386,0.35-0.791c0-0.441-0.116-0.871-0.34-1.296
			c-0.222-0.423-0.563-0.769-1.013-1.034c-0.459-0.27-1.002-0.403-1.633-0.403c-0.486,0-0.931,0.078-1.33,0.234
			c-0.4,0.156-0.736,0.379-1.008,0.674c-0.273,0.295-0.481,0.643-0.622,1.054c-0.145,0.41-0.217,0.855-0.217,1.334
			c0,1.016,0.29,1.822,0.868,2.417c0.58,0.593,1.386,0.888,2.428,0.888c0.454,0,0.86-0.06,1.208-0.178
			c0.348-0.117,0.641-0.268,0.873-0.447c0.234-0.181,0.408-0.367,0.519-0.566c0.116-0.195,0.171-0.365,0.171-0.512
			c0-0.167-0.047-0.294-0.15-0.386c-0.105-0.092-0.239-0.138-0.406-0.138c-0.151,0-0.271,0.038-0.355,0.109
			c-0.203,0.189-0.368,0.34-0.493,0.449c-0.127,0.114-0.264,0.217-0.415,0.312c-0.152,0.097-0.306,0.17-0.469,0.213
			c-0.157,0.049-0.336,0.07-0.527,0.07c-0.292,0-0.555-0.071-0.794-0.213c-0.239-0.144-0.431-0.356-0.576-0.635
			c-0.143-0.28-0.217-0.607-0.221-0.974h3.169C405.35,485.33,405.678,485.27,405.913,485.149z M401.759,484.409
			c0.052-0.546,0.211-0.957,0.469-1.236c0.261-0.281,0.592-0.418,0.996-0.418c0.425,0,0.763,0.136,1.026,0.412
			c0.256,0.273,0.406,0.688,0.447,1.241H401.759z"/>
		<path style="fill:#077A8D;" d="M411.921,482.034c-0.42-0.256-0.882-0.386-1.379-0.386c-0.415,0-0.789,0.089-1.113,0.267
			c-0.332,0.176-0.649,0.452-0.953,0.827v-0.194c0-0.297-0.071-0.519-0.217-0.678c-0.144-0.156-0.329-0.234-0.56-0.234
			c-0.233,0-0.419,0.078-0.553,0.228c-0.133,0.155-0.2,0.383-0.2,0.692v6.993c0,0.355,0.051,0.62,0.146,0.807
			c0.101,0.183,0.3,0.275,0.607,0.275c0.517,0,0.777-0.359,0.777-1.068v-2.432c0.287,0.358,0.587,0.633,0.901,0.815
			c0.314,0.187,0.704,0.279,1.165,0.279c0.386,0,0.741-0.076,1.08-0.227c0.333-0.152,0.622-0.372,0.868-0.653
			c0.245-0.284,0.441-0.633,0.581-1.05c0.139-0.418,0.21-0.878,0.21-1.375c0-0.677-0.123-1.261-0.366-1.758
			C412.671,482.669,412.341,482.293,411.921,482.034z M411.445,486.037c-0.137,0.312-0.32,0.546-0.552,0.704
			c-0.229,0.154-0.481,0.232-0.748,0.232c-0.454,0-0.829-0.178-1.133-0.536c-0.307-0.358-0.46-0.862-0.46-1.503
			c0-0.686,0.155-1.204,0.462-1.558c0.306-0.35,0.683-0.527,1.13-0.527c0.281,0,0.541,0.084,0.77,0.248
			c0.229,0.163,0.41,0.397,0.541,0.705c0.131,0.306,0.196,0.674,0.196,1.101C411.653,485.345,411.583,485.723,411.445,486.037z"/>
		<path style="fill:#077A8D;" d="M414.895,481.637c-0.238,0-0.428,0.079-0.58,0.245c-0.147,0.162-0.222,0.403-0.222,0.721v4.641
			c0,0.314,0.076,0.556,0.222,0.729c0.151,0.171,0.342,0.254,0.58,0.254c0.238,0,0.432-0.082,0.588-0.25
			c0.154-0.165,0.231-0.41,0.231-0.732v-4.687c0-0.286-0.077-0.513-0.231-0.675C415.327,481.716,415.133,481.637,414.895,481.637z"
			/>
		<path style="fill:#077A8D;" d="M414.912,479.297c-0.217,0-0.408,0.076-0.571,0.222c-0.166,0.15-0.248,0.339-0.248,0.569
			c0,0.253,0.079,0.446,0.242,0.585c0.159,0.138,0.35,0.209,0.577,0.209c0.22,0,0.408-0.071,0.566-0.21
			c0.156-0.14,0.236-0.335,0.236-0.585c0-0.257-0.082-0.455-0.244-0.591C415.309,479.364,415.125,479.297,414.912,479.297z"/>
		<path style="fill:#077A8D;" d="M422.251,486.666l-1.661-2.613l0.86-0.789c0.438-0.395,0.659-0.714,0.659-0.951
			c0-0.192-0.068-0.354-0.2-0.483c-0.139-0.128-0.306-0.193-0.51-0.193c-0.168,0-0.312,0.043-0.431,0.13
			c-0.121,0.086-0.29,0.251-0.516,0.486l-1.822,1.913v-3.932c0-0.33-0.075-0.582-0.221-0.751c-0.148-0.172-0.344-0.257-0.593-0.257
			c-0.255,0-0.456,0.092-0.595,0.283c-0.135,0.189-0.207,0.462-0.207,0.821v6.912c0,0.323,0.073,0.569,0.215,0.733
			c0.142,0.168,0.339,0.25,0.588,0.25c0.212,0,0.405-0.083,0.566-0.254c0.165-0.167,0.248-0.406,0.248-0.717v-1.291l0.88-0.83
			l1.427,2.353c0.182,0.278,0.329,0.472,0.436,0.58c0.106,0.11,0.261,0.16,0.459,0.16c0.226,0,0.413-0.073,0.553-0.221
			c0.142-0.15,0.214-0.352,0.214-0.609c0-0.089-0.029-0.189-0.082-0.289C422.464,487.006,422.372,486.862,422.251,486.666z"/>
		<path style="fill:#077A8D;" d="M424.443,486.439c-0.25,0-0.458,0.087-0.63,0.262c-0.17,0.173-0.256,0.381-0.256,0.622
			c0,0.287,0.09,0.51,0.268,0.665c0.178,0.16,0.388,0.238,0.633,0.238c0.237,0,0.444-0.078,0.624-0.24
			c0.174-0.157,0.263-0.38,0.263-0.663c0-0.243-0.089-0.454-0.263-0.626C424.903,486.527,424.692,486.439,424.443,486.439z"/>
		<path style="fill:#077A8D;" d="M431.828,485.513c-0.167,0-0.309,0.054-0.422,0.155c-0.114,0.104-0.22,0.245-0.319,0.427
			c-0.177,0.309-0.381,0.538-0.616,0.689c-0.231,0.15-0.509,0.225-0.835,0.225c-0.239,0-0.462-0.045-0.665-0.141
			c-0.201-0.093-0.372-0.229-0.516-0.409c-0.143-0.18-0.251-0.398-0.325-0.652c-0.076-0.255-0.115-0.537-0.115-0.842
			c0-0.646,0.148-1.161,0.439-1.533c0.294-0.375,0.682-0.561,1.158-0.561c0.333,0,0.607,0.074,0.821,0.226
			c0.219,0.148,0.423,0.375,0.622,0.674c0.108,0.157,0.209,0.268,0.299,0.339c0.089,0.068,0.201,0.104,0.338,0.104
			c0.201,0,0.377-0.068,0.523-0.203c0.144-0.135,0.215-0.3,0.215-0.492c0-0.191-0.063-0.397-0.193-0.617
			c-0.127-0.218-0.314-0.423-0.555-0.62c-0.245-0.192-0.541-0.352-0.891-0.474c-0.353-0.123-0.736-0.184-1.157-0.184
			c-0.673,0-1.259,0.138-1.746,0.418c-0.486,0.279-0.858,0.674-1.113,1.183c-0.259,0.511-0.387,1.098-0.387,1.765
			c0,0.981,0.282,1.765,0.841,2.35c0.563,0.582,1.345,0.875,2.348,0.875c0.469,0,0.893-0.065,1.269-0.192
			c0.377-0.126,0.687-0.294,0.934-0.501c0.249-0.208,0.434-0.425,0.554-0.657c0.121-0.229,0.182-0.446,0.182-0.646
			c0-0.169-0.067-0.331-0.199-0.481C432.19,485.59,432.026,485.513,431.828,485.513z"/>
		<path style="fill:#077A8D;" d="M438.639,482.55c-0.288-0.29-0.628-0.517-1.027-0.674c-0.4-0.16-0.846-0.238-1.336-0.238
			c-0.482,0-0.923,0.078-1.325,0.234c-0.398,0.158-0.737,0.38-1.019,0.669c-0.281,0.288-0.498,0.636-0.649,1.045
			c-0.146,0.408-0.223,0.857-0.223,1.348c0,0.485,0.076,0.929,0.218,1.331c0.152,0.401,0.37,0.75,0.658,1.048
			c0.284,0.293,0.626,0.521,1.015,0.676c0.393,0.16,0.835,0.239,1.325,0.239c0.493,0,0.937-0.079,1.336-0.234
			c0.394-0.157,0.736-0.382,1.02-0.675c0.286-0.291,0.502-0.641,0.655-1.049c0.146-0.409,0.222-0.855,0.222-1.336
			c0-0.489-0.074-0.932-0.221-1.339C439.14,483.193,438.924,482.846,438.639,482.55z M437.446,486.465
			c-0.289,0.372-0.681,0.557-1.171,0.557c-0.323,0-0.604-0.086-0.844-0.253c-0.24-0.168-0.424-0.41-0.554-0.729
			c-0.129-0.316-0.193-0.684-0.193-1.108c0-0.428,0.066-0.803,0.197-1.124c0.131-0.322,0.315-0.564,0.556-0.727
			c0.242-0.163,0.521-0.246,0.839-0.246c0.491,0,0.882,0.182,1.171,0.555c0.289,0.367,0.436,0.881,0.436,1.542
			C437.882,485.583,437.736,486.096,437.446,486.465z"/>
		<path style="fill:#077A8D;" d="M449.276,482.657c-0.159-0.322-0.398-0.573-0.716-0.747c-0.321-0.173-0.705-0.262-1.146-0.262
			c-0.381,0-0.726,0.081-1.038,0.241c-0.314,0.161-0.607,0.408-0.881,0.738c-0.191-0.326-0.432-0.572-0.725-0.735
			c-0.292-0.162-0.642-0.243-1.048-0.243c-0.394,0-0.748,0.079-1.07,0.241c-0.319,0.156-0.62,0.403-0.903,0.738v-0.153
			c0-0.261-0.073-0.466-0.221-0.615c-0.15-0.145-0.334-0.222-0.558-0.222c-0.227,0-0.412,0.078-0.555,0.238
			c-0.14,0.157-0.21,0.389-0.21,0.694v4.636c0,0.335,0.078,0.591,0.235,0.764c0.156,0.171,0.356,0.258,0.604,0.258
			c0.248,0,0.447-0.087,0.603-0.258c0.149-0.173,0.226-0.428,0.226-0.764v-2.189c0-0.683,0.087-1.206,0.254-1.566
			c0.168-0.369,0.516-0.55,1.047-0.55c0.263,0,0.459,0.073,0.582,0.22c0.121,0.142,0.198,0.331,0.226,0.552
			c0.027,0.226,0.04,0.544,0.04,0.953v2.582c0,0.342,0.078,0.594,0.232,0.766c0.149,0.171,0.349,0.255,0.594,0.255
			c0.254,0,0.455-0.084,0.612-0.255c0.155-0.172,0.23-0.425,0.23-0.766v-2.154c0-0.694,0.061-1.178,0.177-1.452
			c0.109-0.21,0.259-0.384,0.45-0.508c0.193-0.126,0.395-0.192,0.609-0.192c0.264,0,0.463,0.073,0.596,0.215
			c0.128,0.142,0.21,0.319,0.239,0.529c0.028,0.209,0.043,0.487,0.043,0.836v2.726c0,0.335,0.079,0.591,0.236,0.764
			c0.156,0.171,0.356,0.258,0.603,0.258c0.253,0,0.457-0.084,0.611-0.255c0.154-0.172,0.229-0.425,0.229-0.766v-3.164
			C449.482,483.413,449.414,482.952,449.276,482.657z"/>
		<path style="fill:#077A8D;" d="M370.357,485.059c-0.031-0.148-0.055-0.294-0.073-0.439c0.018,0.146,0.043,0.293,0.072,0.439
			H370.357z"/>
		<path style="fill:#077A8D;" d="M373.78,478.788c0.617-0.206,1.153-0.331,1.639-0.383c0.476-0.051,0.834-0.073,1.126-0.073
			c0.314,0,0.544,0.025,0.809,0.069l0.076-0.477c0,0-0.732-0.225-1.694-0.146l-0.076-0.259c0.299-0.063,0.523-0.329,0.523-0.646
			c0-0.364-0.297-0.658-0.66-0.658c-0.365,0-0.66,0.295-0.66,0.658c0,0.317,0.224,0.583,0.522,0.646l0.084,0.289
			c-1.021,0.14-1.834,0.539-1.834,0.539L373.78,478.788z"/>
		<path style="fill:#077A8D;" d="M370.883,480.738c0.024-0.031,0.047-0.06,0.071-0.089l-0.196-0.141l-0.305-0.223
			c-0.017,0.024-0.497,0.465-0.876,1.28c-0.016-0.026-0.035-0.051-0.056-0.075c-0.113-0.124-0.272-0.187-0.473-0.184
			c0,0-0.006,0-0.01,0c-0.125,0-0.21-0.042-0.266-0.092c0.056-0.071,0.089-0.16,0.089-0.258c0-0.23-0.187-0.418-0.419-0.418
			c-0.23,0-0.417,0.188-0.417,0.418c0,0.231,0.187,0.418,0.417,0.418c0.037,0,0.071-0.006,0.105-0.013
			c0.102,0.114,0.265,0.214,0.504,0.209c0.123-0.001,0.214,0.03,0.273,0.097c0.07,0.076,0.093,0.185,0.1,0.267l-0.002,0.003
			c-0.272,0.743-0.195,1.668-0.195,1.668l0.661,0.026c0.013-0.337,0.062-0.926,0.232-1.394c0.328-0.905,0.741-1.472,0.757-1.495
			L370.883,480.738z"/>
		<path style="fill:#077A8D;" d="M382.292,478.884c-0.229,0-0.417,0.187-0.417,0.418c0,0.036,0.005,0.07,0.015,0.103
			c-0.115,0.104-0.215,0.267-0.211,0.506c0.003,0.123-0.029,0.212-0.096,0.273c-0.052,0.047-0.12,0.072-0.184,0.088
			c-0.492-0.689-1.097-1.109-1.097-1.109l-0.475,0.508c0.359,0.326,0.725,0.734,1.08,1.243c0.246,0.352,0.499,0.806,0.71,1.259
			l0.639-0.304c0,0-0.292-0.722-0.703-1.369c0.071-0.025,0.143-0.064,0.206-0.12c0.126-0.113,0.187-0.273,0.183-0.474
			c-0.001-0.13,0.041-0.218,0.093-0.276c0.072,0.054,0.161,0.089,0.257,0.089c0.232,0,0.419-0.187,0.419-0.418
			C382.711,479.071,382.524,478.884,382.292,478.884z"/>
		<path style="fill:#077A8D;" d="M380.633,484.634c-0.881,0.429-2.329,0.996-4.237,1.262c-0.749,0.104-1.474,0.142-2.142,0.142
			c-0.869,0-1.637-0.065-2.226-0.139c-0.672-0.085-1.198-0.189-1.52-0.261h-0.002c0.079,0.25,0.175,0.492,0.286,0.724l0.008,0.017
			c0.013,0.027,0.027,0.056,0.041,0.084c0.013,0.027,0.027,0.054,0.041,0.079c0,0,0.007,0.015,0.01,0.021
			c0.189,0.356,0.417,0.684,0.675,0.968c0.899,0.984,1.816,1.14,1.824,1.141l0.015,0.001l0.013,0.005
			c0.009,0.004,0.821,0.266,2.056,0.266c1.215,0,2.409-0.245,3.545-0.73c0.842-0.431,1.639-1.085,2.033-1.668
			c0.305-0.451,0.526-0.933,0.657-1.433c0.069-0.266,0.124-0.692,0.091-1.14C381.554,484.138,381.162,484.376,380.633,484.634z"/>
		<path style="fill:#077A8D;" d="M376.323,485.372c1.829-0.254,3.218-0.795,4.061-1.204c0.7-0.34,1.151-0.647,1.324-0.774
			c-0.173-0.643-0.651-1.65-1.089-2.278c-1.253-1.79-2.604-2.25-3.297-2.364c-0.265-0.043-0.477-0.068-0.777-0.068
			c-0.279,0-0.626,0.023-1.089,0.071c-0.465,0.048-0.982,0.17-1.583,0.372c-0.842,0.282-1.603,0.724-2.203,1.279l-0.02,0.019
			c-0.089,0.082-0.275,0.254-0.488,0.525c-0.026,0.037-0.408,0.578-0.709,1.408c-0.226,0.622-0.216,1.527-0.216,1.537v0.002
			c0,0.212,0.012,0.423,0.035,0.632c0,0.005,0,0.008,0.001,0.011c0.002,0.027,0.007,0.052,0.01,0.079
			c0.018,0.145,0.043,0.291,0.074,0.439C370.795,485.17,373.405,485.779,376.323,485.372z M378.828,480.535
			c0.6,0,1.09,0.488,1.09,1.089c0,0.601-0.489,1.09-1.09,1.09s-1.089-0.489-1.089-1.09
			C377.74,481.023,378.228,480.535,378.828,480.535z M373.679,480.492c0.973,0,1.76,0.788,1.76,1.76c0,0.972-0.788,1.759-1.76,1.759
			c-0.971,0-1.759-0.786-1.759-1.759C371.92,481.28,372.708,480.492,373.679,480.492z"/>
	</g>
</g>
</svg>
