<?xml version="1.0" encoding="utf-8"?>
<svg viewBox="-495.4564 -95.9679 1366 768" xmlns="http://www.w3.org/2000/svg">
  <g id="Background" transform="matrix(1, 0, 0, 1, -495.4563977637349, -95.96789693784558)">
    <title>Fondo</title>
    <rect style="fill:#23495F;" width="1366" height="768"/>
  </g>
  <g id="Objects" transform="matrix(1, 0, 0, 1, -495.456428, -95.967897)">
    <title>Dibujo</title>
    <path style="opacity:0.5;fill-rule:evenodd;clip-rule:evenodd;fill:#FFFFFF;" d="M 723.821 371.223 L 1362.887 194.775 L 1368.571 313.697 L 928.772 667.859 C 746.21 791.846 491.983 523.408 723.821 371.223 Z">
      <title>Luz</title>
    </path>
    <rect x="439.893" y="371.969" style="fill-rule:evenodd;clip-rule:evenodd;fill:#95B3C4;" width="488.529" height="330.775">
      <title>Window</title>
    </rect>
    <rect x="439.893" y="371.969" style="fill-rule:evenodd;clip-rule:evenodd;fill:#5C8196;" width="488.529" height="42.877">
      <title>Titlebar</title>
    </rect>
    <g transform="matrix(1, 0, 0, 1, -22.811528, 85.495408)">
      <title>Left Eye</title>
      <path style="fill-rule:evenodd;clip-rule:evenodd;fill:#FFFFFF;" d="M672.366,431.266c19.059,0,34.603-15.545,34.603-34.604 c0-19.059-15.544-34.603-34.603-34.603c-19.059,0-34.603,15.545-34.603,34.603C637.762,415.721,653.307,431.266,672.366,431.266z"/>
      <g>
        <path style="fill-rule:evenodd;clip-rule:evenodd;" d="M685.876,373.587c5.44-2.278,11.697,0.286,13.974,5.727 c2.277,5.439-0.287,11.695-5.727,13.974c-5.44,2.276-11.697-0.288-13.974-5.728C677.872,382.119,680.435,375.863,685.876,373.587 z"/>
        <path style="fill-rule:evenodd;clip-rule:evenodd;fill:#FFFFFF;" d="M690.991,374.068c1.762-0.737,3.789,0.092,4.525,1.855 c0.738,1.763-0.093,3.789-1.856,4.527c-1.762,0.738-3.789-0.093-4.525-1.855C688.397,376.833,689.229,374.805,690.991,374.068z"/>
      </g>
    </g>
    <path style="fill:#193545;" d="M 616.538 440.016 C 615.698 441.14 614.948 440.534 614.862 438.665 C 614.776 436.795 615.386 434.369 616.226 433.245 C 620.842 427.084 631.671 419.837 644.621 413.896 C 656.566 408.416 670.378 403.982 682.801 402.482 C 683.58 402.389 683.949 404.082 683.621 406.264 C 683.295 408.445 682.397 410.287 681.618 410.381 C 669.292 411.869 655.618 416.256 643.809 421.673 C 631.206 427.456 620.796 434.334 616.538 440.016 Z">
      <title>Left Eyebrow</title>
    </path>
    <path style="opacity: 0.9; fill-rule: evenodd; clip-rule: evenodd; fill: rgb(35, 73, 95);" d="M 728.206 368.831 C 726.396 370.233 720.606 374.788 718.875 376.216 C 575.783 494.156 700.856 694.794 831.565 703.903 L 437.578 703.903 L 437.578 368.831 L 728.206 368.831 Z M 849.871 703.902 C 877.139 701.969 904.115 690.032 928.422 667.943 L 928.422 703.902 L 849.871 703.902 Z">
      <title>Shadow Window</title>
    </path>
    <path style="fill-rule: evenodd; clip-rule: evenodd; fill: rgb(249, 129, 24);" d="M 724.195 371.969 L 928.422 371.969 L 928.422 668.077 C 904.411 689.887 877.791 700.636 850.86 702.744 L 830.538 702.744 C 698.623 692.502 573.159 488.992 724.195 371.969 Z">
      <title>Highlight Window</title>
    </path>
    <path style="fill-rule:evenodd;clip-rule:evenodd;fill:#4F96BF;" d="M 724.195 371.969 L 928.422 371.969 L 928.422 414.846 L 682.935 414.846 C 693.359 399.703 707.01 385.286 724.195 371.969 Z">
      <title>Highlight Titlebar</title>
    </path>
    <g style="" transform="matrix(1, 0, 0, 1, -22.811528, 85.495408)">
      <title>Highlight Left Eye</title>
      <path style="fill-rule:evenodd;clip-rule:evenodd;fill:#FFFFFF;" d="M687.215,365.4c11.682,5.558,19.754,17.466,19.754,31.262 c0,16.983-12.235,31.108-28.372,34.042C676.959,408.894,679.504,386.8,687.215,365.4z"/>
      <g>
        <path style="fill-rule:evenodd;clip-rule:evenodd;" d="M685.876,373.587c5.44-2.278,11.697,0.286,13.974,5.727 c2.277,5.439-0.287,11.695-5.727,13.974c-4.967,2.078-10.613,0.121-13.29-4.373c0.914-4.856,2.061-9.696,3.462-14.507 C684.79,374.096,685.318,373.82,685.876,373.587z"/>
        <path style="fill-rule:evenodd;clip-rule:evenodd;fill:#FFFFFF;" d="M 694.991 378.068 C 696.753 377.331 698.78 378.16 699.516 379.923 C 700.254 381.686 699.423 383.712 697.66 384.45 C 695.898 385.188 693.871 384.357 693.135 382.595 C 692.397 380.833 693.229 378.805 694.991 378.068 Z"/>
      </g>
    </g>
    <g transform="matrix(1, 0, 0, 1, -22.811528, 85.495408)">
      <title>Hightlight Right Eye</title>
      <path style="fill-rule:evenodd;clip-rule:evenodd;fill:#FFFFFF;" d="M 753.922 431.266 C 772.981 431.266 788.525 415.721 788.525 396.662 C 788.525 377.603 772.981 362.059 753.922 362.059 C 734.862 362.059 719.318 377.604 719.318 396.662 C 719.318 415.721 734.862 431.266 753.922 431.266 Z">
        <title>Trayecto</title>
      </path>
      <path style="fill-rule:evenodd;clip-rule:evenodd;" d="M767.432,373.587c5.44-2.278,11.695,0.286,13.974,5.727 c2.277,5.439-0.287,11.695-5.727,13.974c-5.441,2.276-11.697-0.288-13.974-5.728C759.427,382.119,761.99,375.863,767.432,373.587z "/>
      <path style="fill-rule:evenodd;clip-rule:evenodd;fill:#FFFFFF;" d="M 776.545 378.068 C 778.309 377.331 780.334 378.16 781.072 379.923 C 781.81 381.686 780.979 383.712 779.218 384.45 C 777.455 385.188 775.428 384.357 774.692 382.595 C 773.953 380.833 774.784 378.805 776.545 378.068 Z"/>
    </g>
    <g transform="matrix(1, 0, 0, 1, -22.811528, 85.495408)">
      <title>Mouth</title>
      <path style="fill:#193545;" d="M695.983,457.311l5.573,3.031l-0.081,0.141l-0.087,0.136l-0.094,0.129l-0.1,0.124l-0.105,0.119 l-0.108,0.111l-0.115,0.106l-0.119,0.1l-0.122,0.093l-0.127,0.086l-0.131,0.081l-0.133,0.074l-0.138,0.067l-0.14,0.06 l-0.143,0.054l-0.146,0.047l-0.146,0.039l-0.147,0.033l-0.151,0.025l-0.151,0.017l-0.151,0.012l-0.153,0.004l-0.155-0.004 l-0.153-0.012l-0.152-0.02l-0.153-0.025L698,461.904l-0.151-0.043l-0.151-0.051l-0.148-0.058l-0.147-0.065l-0.145-0.074 l-0.144-0.083l-0.134-0.088l-0.131-0.093l-0.124-0.098l-0.117-0.105l-0.111-0.11l-0.107-0.113l-0.099-0.118l-0.095-0.123 l-0.086-0.127l-0.081-0.131l-0.072-0.134l-0.067-0.137l-0.06-0.141l-0.054-0.142l-0.048-0.145l-0.04-0.147l-0.032-0.149 l-0.026-0.15l-0.017-0.151l-0.011-0.153l-0.005-0.152l0.005-0.153l0.011-0.153l0.019-0.155l0.026-0.153l0.034-0.151l0.043-0.152 l0.05-0.15l0.059-0.149l0.065-0.146L695.983,457.311L695.983,457.311z M761.987,452.248l-5.479,3.195l-1.023-1.585l-1.143-1.461 l-1.256-1.344l-1.364-1.23l-1.472-1.118l-1.567-1.007l-1.663-0.896l-1.746-0.782l-1.824-0.67l-1.895-0.556l-1.955-0.442 l-2.005-0.327l-2.05-0.211l-2.079-0.097l-2.101,0.018l-2.115,0.13l-2.118,0.245l-2.108,0.357l-2.093,0.469l-2.065,0.579 l-2.027,0.685l-1.98,0.793l-1.926,0.898l-1.86,1l-1.785,1.102l-1.701,1.199l-1.613,1.294l-1.511,1.389l-1.404,1.482l-1.288,1.571 l-1.171,1.661l-1.043,1.752l-5.573-3.031l1.292-2.172l1.445-2.051l1.582-1.929l1.71-1.804l1.826-1.678l1.931-1.553l2.025-1.427 l2.11-1.301l2.184-1.175l2.249-1.049l2.305-0.924l2.351-0.797l2.39-0.667l2.418-0.543l2.437-0.412l2.451-0.284l2.452-0.151 l2.447-0.021l2.433,0.114l2.411,0.249l2.379,0.39l2.338,0.528l2.287,0.671l2.229,0.819l2.16,0.967l2.077,1.12l1.985,1.273 l1.881,1.432l1.766,1.591l1.634,1.75l1.49,1.906L761.987,452.248L761.987,452.248z M756.508,455.443l5.479-3.195l0.079,0.143 l0.07,0.145l0.063,0.148l0.055,0.149l0.047,0.15l0.039,0.152l0.031,0.152l0.024,0.151l0.015,0.155l0.009,0.153v0.153l-0.005,0.153 l-0.014,0.151l-0.021,0.151l-0.029,0.149l-0.035,0.148l-0.043,0.146l-0.048,0.144l-0.057,0.143l-0.063,0.138l-0.069,0.138 l-0.075,0.132l-0.083,0.13l-0.089,0.125l-0.097,0.122l-0.102,0.117l-0.108,0.112l-0.115,0.108l-0.121,0.104l-0.127,0.098 l-0.133,0.091l-0.139,0.086l-0.143,0.078l-0.145,0.072l-0.147,0.061l-0.15,0.056l-0.149,0.046l-0.151,0.038l-0.153,0.032 l-0.153,0.022l-0.152,0.016l-0.153,0.009l-0.153,0.002l-0.153-0.007l-0.151-0.014l-0.151-0.022l-0.149-0.027l-0.148-0.036 l-0.146-0.041l-0.144-0.05l-0.141-0.056l-0.14-0.063l-0.136-0.07l-0.133-0.075l-0.129-0.083l-0.126-0.09l-0.122-0.096 l-0.117-0.102l-0.113-0.108l-0.106-0.114l-0.103-0.122l-0.098-0.127l-0.092-0.133L756.508,455.443z"/>
    </g>
    <path style="fill:#193545;" d="M 784.668 438.939 C 785.546 440.034 786.275 439.404 786.301 437.532 C 786.326 435.661 785.635 433.255 784.759 432.161 C 779.946 426.154 768.886 419.263 755.748 413.747 C 743.632 408.66 729.685 404.678 717.218 403.585 C 716.436 403.518 716.124 405.222 716.522 407.392 C 716.92 409.561 717.875 411.374 718.658 411.441 C 731.025 412.526 744.836 416.464 756.814 421.492 C 769.6 426.862 780.228 433.398 784.668 438.939 Z">
      <title>Right Eyebrow</title>
    </path>
  </g>
  <g transform="matrix(1, 0, 0, 1, -177.706637, -231.4724)">
    <title>Texto</title>
    <text transform="matrix(1, 0, 0, 1, 157.608416, 267.925968)" style="fill: rgb(61, 102, 128); font-family: Arial; font-size: 115px; white-space: pre; font-weight: 700;">ERROR<tspan x="0" dy="1em">​</tspan></text>
    <text style="fill: rgb(61, 102, 128); font-family: Arial; font-size: 141.5px; white-space: pre; font-weight: 700;" x="247.207" y="384.261">404</text>
    <text style="fill: rgb(133, 184, 215); font-family: Arial; font-size: 75px; white-space: pre;" x="190.146" y="464.571">Not Found</text>
  </g>
</svg>