<?xml version="1.0" encoding="utf-8"?>
<svg viewBox="-434.0388 -95.9679 1366 768" xmlns="http://www.w3.org/2000/svg">
  <g id="Background" transform="matrix(1, 0, 0, 1, -434.03882482705717, -95.96789693784561)" style="">
    <rect style="fill: rgb(35, 73, 95);" width="1366" height="768"/>
  </g>
  <g id="Background_Complete" transform="matrix(2.3717060089111333, 0, 0, 2.172321081161499, -306.10599211016256, -199.77579033040686)" style="">
    <g style="" transform="matrix(1.414513, 0, 0, 1.414513, -108.883554, -53.929456)">
      <path style="fill: rgb(224, 224, 224); fill-opacity: 0.09;" d="M227.33,158.82v22.766l11.723,1.105c1.582,7.631,4.607,14.726,8.743,21.029l-7.53,9.095 l16.099,16.1l9.096-7.531c6.302,4.137,13.398,7.162,21.029,8.744l1.104,11.723h22.767l1.105-11.724 c7.631-1.583,14.728-4.606,21.029-8.743l9.096,7.531l16.1-16.1l-7.53-9.096c4.136-6.302,7.16-13.397,8.743-21.028l11.724-1.105 V158.82l-11.724-1.105c-1.583-7.632-4.607-14.728-8.743-21.03l7.53-9.096l-16.1-16.1l-9.096,7.529 c-6.301-4.134-13.398-7.159-21.029-8.742l-1.105-11.724h-22.767l-1.104,11.724c-7.631,1.582-14.727,4.607-21.029,8.742 l-9.096-7.529l-16.099,16.1l7.53,9.095c-4.136,6.302-7.161,13.398-8.743,21.03L227.33,158.82z M298.978,139.381 c17.023,0,30.822,13.799,30.822,30.822c0,17.022-13.799,30.821-30.822,30.821c-17.022,0-30.822-13.8-30.822-30.821 C268.157,153.18,281.956,139.381,298.978,139.381z"/>
      <path style="fill: rgb(224, 224, 224); fill-opacity: 0.09;" d="M188.865,260.701l6.535,5.412l11.567-11.568l-5.41-6.535c2.971-4.528,5.145-9.628,6.281-15.11 l8.423-0.793v-16.358l-8.423-0.794c-1.137-5.484-3.31-10.581-6.282-15.109l5.41-6.536l-11.567-11.568l-6.535,5.41 c-4.529-2.97-9.627-5.143-15.111-6.282l-0.793-8.423l-16.359,0.002l-0.792,8.421c-5.484,1.137-10.583,3.312-15.111,6.282 l-6.535-5.41l-11.567,11.568l5.411,6.536c-2.972,4.526-5.145,9.625-6.283,15.109l-8.421,0.794v16.358l8.421,0.793 c1.138,5.482,3.31,10.581,6.283,15.11l-5.411,6.535l11.567,11.568l6.535-5.412c4.528,2.971,9.626,5.145,15.111,6.283l0.792,8.422 h16.359l0.793-8.424C179.238,265.846,184.336,263.672,188.865,260.701z M142.637,223.927c0-12.23,9.914-22.144,22.145-22.144 c12.229,0,22.145,9.914,22.145,22.144c0,12.23-9.915,22.145-22.145,22.145C152.551,246.072,142.637,236.157,142.637,223.927z"/>
      <path style="fill: rgb(240, 240, 240); fill-opacity: 0.09;" d="M401.552,211.225h21.507c2.078,0,3.376-2.249,2.338-4.049l-10.753-18.626 c-1.039-1.799-3.636-1.799-4.675,0l-10.753,18.626C398.176,208.976,399.475,211.225,401.552,211.225z M413.753,193.633 l-0.476,9.279h-1.962l-0.496-9.279H413.753z M410.72,206.103c0-0.852,0.654-1.527,1.566-1.527c0.932,0,1.606,0.675,1.606,1.527 c0,0.852-0.674,1.547-1.606,1.547C411.374,207.65,410.72,206.955,410.72,206.103z"/>
      <path style="fill: rgb(240, 240, 240); fill-opacity: 0.09;" d="M86.948,127.228h21.507c2.078,0,3.376-2.249,2.338-4.049l-10.753-18.626 c-1.039-1.799-3.636-1.799-4.675,0L84.611,123.18C83.572,124.979,84.87,127.228,86.948,127.228z M99.148,109.636l-0.476,9.279 h-1.962l-0.496-9.279H99.148z M96.116,122.106c0-0.852,0.654-1.527,1.566-1.527c0.932,0,1.606,0.675,1.606,1.527 c0,0.852-0.674,1.546-1.606,1.546C96.769,123.652,96.116,122.958,96.116,122.106z"/>
      <path style="fill: rgb(240, 240, 240); fill-opacity: 0.09;" d="M 327.427 308.474 L 348.934 308.474 C 351.012 308.474 352.31 306.225 351.272 304.425 L 340.519 285.799 C 339.48 284 336.883 284 335.844 285.799 L 325.091 304.425 C 324.051 306.225 325.35 308.474 327.427 308.474 Z M 339.628 290.882 L 339.152 300.161 L 337.19 300.161 L 336.694 290.882 L 339.628 290.882 Z M 336.595 303.352 C 336.595 302.5 337.249 301.825 338.16 301.825 C 339.092 301.825 339.766 302.5 339.766 303.352 C 339.766 304.204 339.092 304.899 338.16 304.899 C 337.248 304.898 336.595 304.204 336.595 303.352 Z"/>
      <path style="fill: rgb(240, 240, 240); fill-opacity: 0.09;" d="M361.473,93.794h11.91c1.151,0,1.87-1.246,1.295-2.242l-5.955-10.314 c-0.576-0.996-2.014-0.996-2.589,0l-5.955,10.314C359.604,92.548,360.323,93.794,361.473,93.794z M368.229,84.052l-0.263,5.138 h-1.087l-0.275-5.138H368.229z M366.55,90.957c0-0.472,0.362-0.846,0.867-0.846c0.516,0,0.889,0.374,0.889,0.846 s-0.373,0.856-0.889,0.856C366.912,91.814,366.55,91.429,366.55,90.957z"/>
      <path style="fill: rgb(240, 240, 240); fill-opacity: 0.09;" d="M64.445,251.502h11.91c1.151,0,1.87-1.246,1.295-2.242l-5.955-10.314 c-0.576-0.996-2.014-0.996-2.589,0l-5.955,10.314C62.575,250.257,63.294,251.502,64.445,251.502z M71.201,241.76l-0.264,5.138 h-1.087l-0.275-5.138H71.201z M69.522,248.666c0-0.472,0.362-0.846,0.867-0.846c0.516,0,0.889,0.374,0.889,0.846 s-0.373,0.856-0.889,0.856C69.884,249.522,69.522,249.138,69.522,248.666z"/>
      <path style="fill: rgb(240, 240, 240); fill-opacity: 0.09;" d="M292.479,175.286h11.91c1.151,0,1.87-1.246,1.295-2.242l-5.955-10.314 c-0.576-0.997-2.014-0.997-2.589,0l-5.955,10.314C290.609,174.04,291.328,175.286,292.479,175.286z M299.235,165.544l-0.264,5.138 h-1.087l-0.275-5.138H299.235z M297.555,172.449c0-0.472,0.362-0.846,0.867-0.846c0.516,0,0.889,0.374,0.889,0.846 s-0.373,0.856-0.889,0.856C297.917,173.305,297.555,172.921,297.555,172.449z"/>
      <g>
        <rect x="164.115" y="88.329" style="fill: rgb(224, 224, 224); fill-opacity: 0.09;" width="30.937" height="20.448"/>
        <rect x="164.115" y="88.329" style="fill: rgb(240, 240, 240); fill-opacity: 0.09;" width="31.004" height="3.356"/>
      </g>
      <g>
        <rect x="96.502" y="164.161" style="fill: rgb(224, 224, 224); fill-opacity: 0.09;" width="30.937" height="20.448"/>
        <rect x="96.502" y="164.161" style="fill: rgb(240, 240, 240); fill-opacity: 0.09;" width="31.004" height="3.356"/>
      </g>
      <g transform="matrix(1, 0, 0, 1, 18.271141, -20.286217)">
        <rect x="92.22" y="309.716" style="fill: rgb(224, 224, 224); fill-opacity: 0.09;" width="30.937" height="20.448"/>
        <rect x="92.22" y="309.716" style="fill: rgb(240, 240, 240); fill-opacity: 0.09;" width="31.004" height="3.356"/>
      </g>
      <g transform="matrix(1, 0, 0, 1, 8.980744, -15.214663)">
        <rect x="330.441" y="257.017" style="fill: rgb(224, 224, 224); fill-opacity: 0.09;" width="30.937" height="20.448"/>
        <rect x="330.441" y="257.017" style="fill: rgb(240, 240, 240); fill-opacity: 0.09;" width="31.004" height="3.356"/>
      </g>
      <g transform="matrix(1, 0, 0, 1, 0.929049, -22.652958)">
        <rect x="398.251" y="283.549" style="fill: rgb(224, 224, 224); fill-opacity: 0.09;" width="30.937" height="20.448"/>
        <rect x="398.251" y="283.549" style="fill: rgb(240, 240, 240); fill-opacity: 0.09;" width="31.004" height="3.356"/>
      </g>
      <g>
        <rect x="386.872" y="130.764" style="fill: rgb(224, 224, 224); fill-opacity: 0.09;" width="30.937" height="20.448"/>
        <rect x="386.872" y="130.764" style="fill: rgb(240, 240, 240); fill-opacity: 0.09;" width="31.004" height="3.356"/>
      </g>
    </g>
  </g>
  <g id="Objects" transform="matrix(1, 0, 0, 1, -447.6326665823558, -93.45696397806651)">
    <text style="fill: rgb(133, 184, 215); font-family: Arial; font-size: 115px; font-weight: 700; white-space: pre;" transform="matrix(1, 0, 0, 1, -41.244385, 18.410178)"><tspan x="528.202" y="121.798">ERROR</tspan><tspan x="528.202" dy="1em">​</tspan><tspan x="528.202" dy="1em">​</tspan></text>
    <text style="fill: rgb(133, 184, 215); font-family: Arial; font-size: 141.5px; font-weight: 700; white-space: pre;" x="562.93" y="291.89">500 </text>
    <text style="fill: rgb(133, 184, 215); font-family: Arial; font-size: 75px; white-space: pre;" x="356.92" y="389.548">Internal Server Error</text>
  </g>
  <g id="Device" transform="matrix(1.4357600212097168, 0, 0, 1.4357600212097168, -188.21618932807723, 27.522583417930946)" style="">
    <g>
      <g>
        <g>
          <path style="fill: rgb(64, 123, 255); paint-order: fill; fill-rule: nonzero;" d="M269.711,413.459v3.015c0,0.376,0.306,0.673,0.681,0.673h85.143c3.148,0,5.294-3.18,4.12-6.093 l-26.982-66.823l-43.601,0.298l1.488,8.67l9.618,56.117c0.313,1.809-1.081,3.47-2.921,3.47h-26.864 C270.017,412.785,269.711,413.083,269.711,413.459z"/>
          <path style="opacity: 0.6; fill: rgb(255, 255, 255); paint-order: fill; fill-rule: nonzero;" d="M269.711,413.459v3.015c0,0.376,0.306,0.673,0.681,0.673h85.143 c3.148,0,5.294-3.18,4.12-6.093l-16.729-41.424l-10.252-25.399l-43.601,0.298l1.488,8.67l4.182,24.405l5.435,31.712 c0.313,1.809-1.081,3.47-2.921,3.47h-26.864C270.017,412.785,269.711,413.083,269.711,413.459z"/>
          <path style="opacity: 0.2; paint-order: fill; fill-rule: nonzero;" d="M297.257,412.785h55.397c1.386,0,2.327-1.41,1.794-2.69l-23.655-56.897 H290.56l9.618,56.117C300.491,411.125,299.097,412.785,297.257,412.785z"/>
          <polygon style="opacity: 0.1; paint-order: fill; fill-rule: nonzero;" points="289.072,344.529 290.56,353.199 294.743,377.603 &#10;&#9;&#9;&#9;&#9;&#9;342.926,369.63 332.673,344.231 &#9;&#9;&#9;&#9;"/>
        </g>
        <g>
          <g>
            <path style="fill: rgb(64, 123, 255); paint-order: fill; fill-rule: nonzero;" d="M204.286,219.961h4.278h193.302h4.278c2.853,0,5.166,2.313,5.166,5.166v136.655 c0,2.853-2.313,5.166-5.166,5.166h-4.278H208.565h-4.278c-2.853,0-5.166-2.313-5.166-5.166V225.126 C199.121,222.273,201.433,219.961,204.286,219.961z"/>
            <path style="opacity: 0.7; fill: rgb(255, 255, 255); paint-order: fill; fill-rule: nonzero;" d="M204.286,219.961h4.278h193.302h4.278c2.853,0,5.166,2.313,5.166,5.166v136.655 c0,2.853-2.313,5.166-5.166,5.166h-4.278H208.565h-4.278c-2.853,0-5.166-2.313-5.166-5.166V225.126 C199.121,222.273,201.433,219.961,204.286,219.961z"/>
            <path style="opacity: 0.2; paint-order: fill; fill-rule: nonzero;" d="M401.869,366.944h4.279c2.85,0,5.16-2.31,5.16-5.16V225.129 c0-2.858-2.31-5.168-5.16-5.168h-4.279c2.85,0,5.16,2.31,5.16,5.168v136.655C407.029,364.634,404.718,366.944,401.869,366.944z "/>
          </g>
          <g>
            <rect x="203.773" y="225.019" style="fill: rgb(38, 50, 56); paint-order: fill; fill-rule: nonzero;" width="198.598" height="131.775"/>
            <rect x="203.773" y="225.019" style="fill: rgb(64, 123, 255); paint-order: fill; fill-rule: nonzero;" width="198.601" height="10.111"/>
            <path style="opacity: 0.2; paint-order: fill; fill-rule: nonzero;" d="M397.726,230.435c0,1.364-1.106,2.47-2.47,2.47c-1.364,0-2.47-1.106-2.47-2.47 c0-1.364,1.106-2.47,2.47-2.47C396.62,227.965,397.726,229.071,397.726,230.435z"/>
            <path style="opacity: 0.2; paint-order: fill; fill-rule: nonzero;" d="M389.573,230.435c0,1.364-1.106,2.47-2.47,2.47c-1.364,0-2.47-1.106-2.47-2.47 c0-1.364,1.106-2.47,2.47-2.47C388.467,227.965,389.573,229.071,389.573,230.435z"/>
            <path style="opacity: 0.2; paint-order: fill; fill-rule: nonzero;" d="M381.419,230.435c0,1.364-1.106,2.47-2.47,2.47c-1.364,0-2.47-1.106-2.47-2.47 c0-1.364,1.106-2.47,2.47-2.47C380.313,227.965,381.419,229.071,381.419,230.435z"/>
            <g>
              <rect x="203.773" y="235.184" style="opacity: 0.4; fill: rgb(255, 255, 255); paint-order: fill; fill-rule: nonzero;" width="198.597" height="34.206"/>
              <g>
                <polygon style="fill: rgb(38, 50, 56); paint-order: fill; fill-rule: nonzero;" points="208.32,236.698 203.773,244.851 203.773,236.698 &#9;&#9;&#9;&#9;&#9;&#9;&#9;"/>
                <polygon style="fill: rgb(38, 50, 56); paint-order: fill; fill-rule: nonzero;" points="232.852,236.698 215.416,267.983 203.773,267.983 203.773,264.151 219.069,236.698 &#10;&#9;&#9;&#9;&#9;&#9;&#9;&#9;&#9;&#9;&#9;&#9;&#9;&#9;&#9;&#9;"/>
                <polygon style="fill: rgb(38, 50, 56); paint-order: fill; fill-rule: nonzero;" points="239.875,268.112 226.098,268.112 243.606,236.694 257.383,236.694 &#9;&#9;&#9;&#9;&#9;&#9;&#9;"/>
                <polygon style="fill: rgb(38, 50, 56); paint-order: fill; fill-rule: nonzero;" points="264.407,268.112 250.63,268.112 268.139,236.694 281.916,236.694 &#9;&#9;&#9;&#9;&#9;&#9;&#9;"/>
                <polygon style="fill: rgb(38, 50, 56); paint-order: fill; fill-rule: nonzero;" points="288.94,268.112 275.163,268.112 292.671,236.694 306.448,236.694 &#9;&#9;&#9;&#9;&#9;&#9;&#9;"/>
                <polygon style="fill: rgb(38, 50, 56); paint-order: fill; fill-rule: nonzero;" points="313.473,268.112 299.696,268.112 317.204,236.694 330.981,236.694 &#9;&#9;&#9;&#9;&#9;&#9;&#9;"/>
                <polygon style="fill: rgb(38, 50, 56); paint-order: fill; fill-rule: nonzero;" points="338.006,267.882 324.228,267.882 341.737,236.463 355.514,236.463 &#9;&#9;&#9;&#9;&#9;&#9;&#9;"/>
                <polygon style="fill: rgb(38, 50, 56); paint-order: fill; fill-rule: nonzero;" points="362.538,267.882 348.761,267.882 366.27,236.463 380.047,236.463 &#9;&#9;&#9;&#9;&#9;&#9;&#9;"/>
                <polygon style="fill: rgb(38, 50, 56); paint-order: fill; fill-rule: nonzero;" points="402.371,236.593 402.371,240.425 387.075,267.878 373.291,267.878 390.728,236.593 &#10;&#9;&#9;&#9;&#9;&#9;&#9;&#9;&#9;&#9;&#9;&#9;&#9;&#9;&#9;&#9;"/>
                <polygon style="fill: rgb(38, 50, 56); paint-order: fill; fill-rule: nonzero;" points="402.371,259.961 402.371,267.983 397.9,267.983 &#9;&#9;&#9;&#9;&#9;&#9;&#9;"/>
              </g>
            </g>
            <g>
              <rect x="203.773" y="322.448" style="opacity: 0.4; fill: rgb(255, 255, 255); paint-order: fill; fill-rule: nonzero;" width="198.597" height="34.206"/>
              <g>
                <polygon style="fill: rgb(38, 50, 56); paint-order: fill; fill-rule: nonzero;" points="208.32,324.249 203.773,332.333 203.773,324.249 &#9;&#9;&#9;&#9;&#9;&#9;&#9;"/>
                <polygon style="fill: rgb(38, 50, 56); paint-order: fill; fill-rule: nonzero;" points="232.852,324.249 215.416,355.267 203.773,355.267 203.773,351.468 219.069,324.249 &#10;&#9;&#9;&#9;&#9;&#9;&#9;&#9;&#9;&#9;&#9;&#9;&#9;&#9;&#9;&#9;"/>
                <polygon style="fill: rgb(38, 50, 56); paint-order: fill; fill-rule: nonzero;" points="239.875,355.396 226.098,355.396 243.606,324.245 257.383,324.245 &#9;&#9;&#9;&#9;&#9;&#9;&#9;"/>
                <polygon style="fill: rgb(38, 50, 56); paint-order: fill; fill-rule: nonzero;" points="264.407,355.396 250.63,355.396 268.139,324.245 281.916,324.245 &#9;&#9;&#9;&#9;&#9;&#9;&#9;"/>
                <polygon style="fill: rgb(38, 50, 56); paint-order: fill; fill-rule: nonzero;" points="288.94,355.396 275.163,355.396 292.671,324.245 306.448,324.245 &#9;&#9;&#9;&#9;&#9;&#9;&#9;"/>
                <polygon style="fill: rgb(38, 50, 56); paint-order: fill; fill-rule: nonzero;" points="313.473,355.396 299.696,355.396 317.204,324.245 330.981,324.245 &#9;&#9;&#9;&#9;&#9;&#9;&#9;"/>
                <polygon style="fill: rgb(38, 50, 56); paint-order: fill; fill-rule: nonzero;" points="338.006,355.167 324.228,355.167 341.737,324.017 355.514,324.017 &#9;&#9;&#9;&#9;&#9;&#9;&#9;"/>
                <polygon style="fill: rgb(38, 50, 56); paint-order: fill; fill-rule: nonzero;" points="362.538,355.167 348.761,355.167 366.27,324.017 380.047,324.017 &#9;&#9;&#9;&#9;&#9;&#9;&#9;"/>
                <polygon style="fill: rgb(38, 50, 56); paint-order: fill; fill-rule: nonzero;" points="402.371,324.145 402.371,327.945 387.075,355.164 373.291,355.164 390.728,324.145 &#10;&#9;&#9;&#9;&#9;&#9;&#9;&#9;&#9;&#9;&#9;&#9;&#9;&#9;&#9;&#9;"/>
                <polygon style="fill: rgb(38, 50, 56); paint-order: fill; fill-rule: nonzero;" points="402.371,347.314 402.371,355.267 397.9,355.267 &#9;&#9;&#9;&#9;&#9;&#9;&#9;"/>
              </g>
            </g>
            <g>
              <g>
                <path style="fill: rgb(255, 255, 255); paint-order: fill; fill-rule: nonzero;" d="M270.174,301.004v2.844h-13.701v-18.268h13.335v2.845h-9.943v4.75h8.821v2.792h-8.821v5.037 H270.174z"/>
                <path style="fill: rgb(255, 255, 255); paint-order: fill; fill-rule: nonzero;" d="M285.907,303.848l-3.732-5.35c-0.235,0.026-0.47,0.026-0.705,0.026h-4.124v5.324h-3.392 v-18.268h7.516c4.802,0,7.776,2.453,7.776,6.499c0,2.766-1.409,4.802-3.888,5.767l4.202,6.003H285.907z M281.314,288.451 h-3.967v7.281h3.967c2.975,0,4.515-1.357,4.515-3.654C285.829,289.781,284.289,288.451,281.314,288.451z"/>
                <path style="fill: rgb(255, 255, 255); paint-order: fill; fill-rule: nonzero;" d="M304.98,303.848l-3.732-5.35c-0.235,0.026-0.47,0.026-0.705,0.026h-4.123v5.324h-3.393 v-18.268h7.516c4.802,0,7.777,2.453,7.777,6.499c0,2.766-1.409,4.802-3.888,5.767l4.202,6.003H304.98z M300.387,288.451 h-3.967v7.281h3.967c2.975,0,4.515-1.357,4.515-3.654C304.902,289.781,303.362,288.451,300.387,288.451z"/>
                <path style="fill: rgb(255, 255, 255); paint-order: fill; fill-rule: nonzero;" d="M310.795,294.714c0-5.402,4.176-9.395,9.839-9.395c5.663,0,9.839,3.967,9.839,9.395 c0,5.429-4.175,9.395-9.839,9.395C314.97,304.109,310.795,300.116,310.795,294.714z M327.053,294.714 c0-3.732-2.74-6.42-6.42-6.42c-3.68,0-6.42,2.688-6.42,6.42c0,3.732,2.74,6.42,6.42,6.42 C324.313,301.134,327.053,298.446,327.053,294.714z"/>
                <path style="fill: rgb(255, 255, 255); paint-order: fill; fill-rule: nonzero;" d="M346.022,303.848l-3.732-5.35c-0.235,0.026-0.47,0.026-0.705,0.026h-4.124v5.324h-3.393 v-18.268h7.516c4.802,0,7.777,2.453,7.777,6.499c0,2.766-1.41,4.802-3.888,5.767l4.202,6.003H346.022z M341.428,288.451 h-3.966v7.281h3.966c2.975,0,4.515-1.357,4.515-3.654C345.943,289.781,344.404,288.451,341.428,288.451z"/>
              </g>
              <g>
                <path style="opacity: 0.4; fill: rgb(255, 255, 255); paint-order: fill; fill-rule: nonzero;" d="M365.611,306.726h21.507c2.078,0,3.376-2.249,2.338-4.049l-10.753-18.626 c-1.039-1.799-3.636-1.799-4.675,0l-10.753,18.626C362.235,304.476,363.534,306.726,365.611,306.726z M377.812,289.133 l-0.476,9.279h-1.962l-0.496-9.279H377.812z M374.779,301.603c0-0.852,0.654-1.527,1.566-1.527 c0.932,0,1.606,0.675,1.606,1.527c0,0.852-0.674,1.546-1.606,1.546C375.432,303.15,374.779,302.456,374.779,301.603z"/>
                <path style="opacity: 0.4; fill: rgb(255, 255, 255); paint-order: fill; fill-rule: nonzero;" d="M219.03,306.726h21.507c2.078,0,3.376-2.249,2.338-4.049l-10.753-18.626 c-1.039-1.799-3.636-1.799-4.675,0l-10.753,18.626C215.654,304.476,216.952,306.726,219.03,306.726z M231.23,289.133 l-0.476,9.279h-1.962l-0.496-9.279H231.23z M228.198,301.603c0-0.852,0.654-1.527,1.566-1.527 c0.932,0,1.606,0.675,1.606,1.527c0,0.852-0.674,1.546-1.606,1.546C228.851,303.15,228.198,302.456,228.198,301.603z"/>
              </g>
            </g>
            <g>
              <path style="opacity: 0.1; fill: rgb(255, 255, 255); paint-order: fill; fill-rule: nonzero;" d="M224.474,225.018c27.459,27.511,97.986,88.736,177.9,84.209v-84.209H224.474z"/>
              <path style="opacity: 0.1; fill: rgb(255, 255, 255); paint-order: fill; fill-rule: nonzero;" d="M203.775,275.581v81.214h119.567c-4.586-16.404-13.751-38.866-31.532-54.919 C259.823,272.997,222.703,273.082,203.775,275.581z"/>
            </g>
          </g>
        </g>
      </g>
    </g>
  </g>
</svg>